<?xml version="1.0" encoding="UTF-8" standalone="no"?>
<!-- Created with Inkscape (http://www.inkscape.org/) -->

<svg
   width="210mm"
   height="297mm"
   viewBox="0 0 210 297"
   version="1.1"
   id="svg5"
   xml:space="preserve"
   sodipodi:docname="borken_sword.svg"
   inkscape:version="1.2.2 (732a01da63, 2022-12-09)"
   xmlns:inkscape="http://www.inkscape.org/namespaces/inkscape"
   xmlns:sodipodi="http://sodipodi.sourceforge.net/DTD/sodipodi-0.dtd"
   xmlns="http://www.w3.org/2000/svg"
   xmlns:svg="http://www.w3.org/2000/svg"><sodipodi:namedview
     id="namedview7"
     pagecolor="#ffffff"
     bordercolor="#000000"
     borderopacity="0.25"
     inkscape:showpageshadow="2"
     inkscape:pageopacity="0.0"
     inkscape:pagecheckerboard="0"
     inkscape:deskcolor="#d1d1d1"
     inkscape:document-units="mm"
     showgrid="false"
     inkscape:zoom="1.3062462"
     inkscape:cx="394.6423"
     inkscape:cy="488.42248"
     inkscape:window-width="2560"
     inkscape:window-height="1369"
     inkscape:window-x="-8"
     inkscape:window-y="-8"
     inkscape:window-maximized="1"
     inkscape:current-layer="layer2" /><defs
     id="defs2" /><g
     inkscape:groupmode="layer"
     id="layer2"
     inkscape:label="Calque 2"
     style="display:inline"><path
       style="display:inline;fill:#000000;stroke:#000000;stroke-width:0.264583"
       d="m 85.66483,136.3124 7.110785,-6.77537 -1.140409,-0.67083 -1.274575,-0.26833 -0.402497,-0.60375 -0.46958,-0.26833 -0.335415,-0.93916 -0.201247,-0.93916 0.603744,-0.80499 0.46958,-0.60375 1.073327,-0.53666 h 1.475822 l 0.872078,0.87208 0.872077,0.93916 v 0.60374 l 5.366631,5.36663 1.140409,0.13417 1.07333,1.20749 0.33541,0.46958 0.13417,0.73791 -0.33542,0.67083 -0.26833,0.60375 -1.34166,0.73791 c 0,0 -0.603744,0.0671 -0.872074,0.0671 -0.268332,0 -1.14041,0.20125 -1.34166,-0.13417 -0.201247,-0.33541 -0.603744,-0.60374 -0.603744,-0.60374 l -0.06708,-0.4025 -0.402497,-0.67083 v -0.33541 l -0.93916,-0.93916 -7.110785,6.37287 -0.201248,-1.00624 -0.402497,-0.805 -0.67083,-0.73791 -0.603745,-0.33541 -0.402497,-0.33542 h -0.46958 z"
       id="path2365" /><path
       style="display:inline;fill:#ffff00;stroke:#000000;stroke-width:0.264583"
       d="m 91.752859,127.55241 -0.442012,-0.0326 c -0.223806,-0.0445 -0.877222,-0.26827 -0.759997,-0.14229 l -0.257301,-0.71372 0.134165,-0.6151 0.291978,-0.53666 0.904162,-0.31168 0.869203,0.14648 0.404069,0.52144 -0.05443,0.65 6.566898,6.36565 0.678054,-0.0124 0.64709,0.48919 0.33541,0.71005 -0.10217,0.39424 -0.28277,0.45823 -0.65845,0.33231 c -0.219668,0.0168 -1.661108,0.0508 -0.862925,0.18075 l -0.774132,-0.75809 -0.06369,-0.72296"
       id="path2475"
       sodipodi:nodetypes="cccccccccccccccccccc" /><path
       style="fill:#ff6600;stroke:#000000;stroke-width:0.264583"
       d="m 93.484342,130.53211 c 0.179668,0.0809 0.343812,0.18115 0.504542,0.28831 0.04928,0.0328 0.01556,0.0893 0.07208,0.10811 0.02281,0.008 0.05059,-0.0107 0.07208,0 0.01074,0.005 -0.0085,0.0275 0,0.036 0.08003,0.08 0.161359,0.10649 0.216231,0.21623 0.04198,0.084 0.09746,0.0741 0.144155,0.14416 0.167696,0.25154 -0.159916,-0.17718 0.108117,0.18019 -0.0222,0.0528 0.06623,0.0302 0.07208,0.036 0.08753,0.0875 -0.01072,0.0529 0.07208,0.10812 0.0447,0.0298 0.09945,0.0423 0.144153,0.0721 0.04386,0.0292 0.02053,0.0952 0.07208,0.10812 0.03496,0.009 0.07393,-0.0114 0.108117,0 0.0114,0.004 -0.0038,0.0246 0,0.036 0.02811,0.0843 0.16396,0.22613 0.216231,0.25227 0.06397,0.032 0.03604,0.15724 0.03604,0.21623 0,0.10273 -0.565936,0.31901 -0.648695,0.36039 -0.03039,0.0152 -0.04169,0.0569 -0.07208,0.0721 -0.01074,0.005 -0.02938,-0.01 -0.03604,0 -0.02747,0.0412 -0.0011,0.10913 -0.03604,0.14415 -0.01442,0.0144 -0.0458,0.0195 -0.07208,0.0721 -0.0054,0.0107 0.0085,0.0275 0,0.036 -0.02548,0.0255 -0.07208,0 -0.108117,0 -0.04805,0 -0.09857,0.0152 -0.144153,0 -0.108572,-0.0362 -0.06736,-0.0981 -0.144156,-0.14416 -0.05253,-0.0315 -0.136879,0.007 -0.180192,-0.036 -0.0439,-0.0439 -0.01688,-0.0805 -0.07208,-0.10812 -0.06366,-0.0318 -0.195427,-0.12335 -0.252273,-0.1802 -0.08753,-0.0875 0.01072,-0.0529 -0.07208,-0.10811 -0.01892,-0.0126 -0.09631,-0.0367 -0.108114,-0.0721 -0.0076,-0.0228 0.01699,-0.0551 0,-0.0721 -0.01699,-0.017 -0.05509,0.017 -0.07208,0 -0.01699,-0.017 0.0058,-0.0488 0,-0.0721 -0.01318,-0.0527 -0.146008,-0.21809 -0.180195,-0.25227 -0.0085,-0.008 -0.02463,0.004 -0.03604,0 -0.02199,-0.007 -0.08612,-0.0648 -0.108114,-0.0721 -0.02281,-0.008 -0.05059,0.0107 -0.07208,0 -0.01074,-0.005 0.0054,-0.0253 0,-0.036 -0.03382,-0.0676 -0.11601,-0.0518 -0.144156,-0.10812 -0.02785,-0.0557 -0.04423,-0.12449 -0.07208,-0.18019 -0.0286,-0.0572 -0.120372,-0.0843 -0.144155,-0.10811 -0.03146,-0.0315 -0.05794,-0.17244 -0.03604,-0.21624 0.0182,-0.0364 0.274278,-0.13573 0.288309,-0.14415 0.01458,-0.009 0.01992,-0.0307 0.03604,-0.036 0.02278,-0.008 0.04877,0.006 0.07208,0 0.05212,-0.013 0.106166,-0.0341 0.144153,-0.0721 0.0085,-0.008 -0.01074,-0.0307 0,-0.036 0.02148,-0.0107 0.04929,0.008 0.07208,0 0.03785,-0.0126 0.06387,-0.10401 0.07208,-0.10811 0.02148,-0.0108 0.05209,0.0133 0.07208,0 0.02236,-0.0149 0.02114,-0.0497 0.03604,-0.0721 0.06317,-0.0948 0.109162,-0.13389 0.180192,-0.25227 z"
       id="path2654" /><path
       style="fill:#ff6600;stroke:#000000;stroke-width:0.264583"
       d="m 91.682407,132.22593 c 0.056,0.14885 0.2275,0.15542 0.324351,0.25227 0.07307,0.0731 0.114035,0.17288 0.180191,0.25227 0.0484,0.0581 0.146344,0.11249 0.180195,0.18019 0.0054,0.0107 -0.0085,0.0275 0,0.036 0.019,0.019 0.05308,0.017 0.07208,0.036 0.02379,0.0238 0.05091,0.11555 0.108114,0.14415 0.01074,0.005 0.02402,0 0.03604,0 0.02402,0.024 0.04381,0.0532 0.07208,0.0721 0.01,0.007 0.02402,0 0.03604,0 0.02402,0 0.05209,-0.0133 0.07208,0 0.03604,0.024 0.03604,0.0841 0.07208,0.10812 0.03636,0.0242 0.158125,0.05 0.180192,0.0721 0.01699,0.017 -0.01699,0.0551 0,0.0721 0.0021,0.10148 0.08126,0.009 0.108116,0.036 0.01201,0.012 0.02402,0.0961 0.03604,0.10812 0.0085,0.008 0.03067,-0.0108 0.03604,0 0.01074,0.0215 -0.01074,0.0506 0,0.0721 0.0035,0.007 0.06426,0.0282 0.07208,0.036 0.0236,0.0236 0.128725,0.14933 0.144155,0.1802 0.01074,0.0215 0,0.048 0,0.0721 0,0.21721 -0.07673,0.13312 -0.180194,0.28831 -0.0149,0.0224 -0.01704,0.0531 -0.03604,0.0721 -0.04449,0.0445 -0.13757,0.0437 -0.180194,0.0721 -0.06006,0.048 -0.120129,0.0961 -0.180192,0.14415 -0.01201,0 -0.02529,-0.005 -0.03604,0 -0.04052,0.0203 -0.06543,0.0939 -0.108117,0.10812 -0.02278,0.008 -0.05059,-0.0107 -0.07208,0 -0.01074,0.005 0,0.024 0,0.036 -0.02402,0.012 -0.04659,0.0275 -0.07208,0.036 -0.177187,0.0591 -0.399532,-0.1759 -0.50454,-0.25227 -0.101528,-0.0255 -0.141173,-0.12389 -0.216233,-0.18019 -0.03039,-0.0228 -0.08125,-0.009 -0.108117,-0.036 -0.0301,-0.0301 -0.07498,-0.12759 -0.108114,-0.14415 -0.02148,-0.0107 -0.05875,0.02 -0.07208,0 -0.02748,-0.0412 -0.0086,-0.10295 -0.03604,-0.14416 -0.01884,-0.0283 -0.05169,-0.0449 -0.07208,-0.0721 -0.03223,-0.043 -0.03984,-0.10118 -0.07208,-0.14416 -0.05666,-0.0755 -0.121695,-0.0857 -0.144156,-0.10811 -0.019,-0.019 -0.01704,-0.0531 -0.03604,-0.0721 -0.02686,-0.0269 -0.08126,-0.009 -0.108116,-0.036 -0.0085,-0.008 0.01,-0.0294 0,-0.036 -0.248468,-0.16564 -0.02569,0.0464 -0.144156,-0.0721 -0.09,-0.09 -0.293457,-0.24197 -0.216231,-0.39642 0.05245,-0.1049 0.201941,-0.1185 0.288309,-0.18019 0.07635,-0.0545 0.132313,-0.13824 0.21623,-0.1802 0.05193,-0.0259 0.130064,-0.047 0.180195,-0.0721 0.04452,-0.0222 0.08012,-0.1382 0.108117,-0.18019 0.04712,-0.0707 0.120128,-0.12013 0.180191,-0.18019 z"
       id="path2656" /><path
       style="fill:#ff6600;stroke:#000000;stroke-width:0.264583"
       d="m 89.808398,133.91974 c 0.161356,0.0408 0.174829,0.2032 0.288309,0.28832 0.02148,0.0161 0.05308,0.017 0.07208,0.036 0.019,0.019 0.01704,0.0531 0.03604,0.0721 0.0085,0.008 0.02754,-0.008 0.03604,0 0.01201,0.012 0.02402,0.0961 0.03604,0.10812 0.05423,0.0542 0.152218,0.0761 0.216231,0.10811 0.07116,0.0356 0.02545,0.11819 0.108117,0.18019 0.02148,0.0161 0.05308,0.017 0.07208,0.036 0.02207,0.0221 0.03068,0.0943 0.07208,0.10812 0.02278,0.008 0.04928,-0.008 0.07208,0 0.07851,-0.0135 0.01201,0.0601 0.03604,0.0721 0.02148,0.0107 0.05059,-0.0107 0.07208,0 0.01074,0.005 -0.0085,0.0275 0,0.036 0.019,0.019 0.05308,0.017 0.07208,0.036 0.03063,0.0306 0.04609,0.0735 0.07208,0.10811 0.04916,0.0656 0.128193,0.0922 0.180191,0.14416 0.0085,0.008 0,0.024 0,0.036 0.01201,0.012 0.02191,0.0266 0.03604,0.036 0.05673,0.0378 0.277151,0.19392 0.288311,0.21624 0.0054,0.0107 -0.0085,0.0275 0,0.036 0.0085,0.008 0.02754,-0.008 0.03604,0 0.05356,0.0536 -0.05424,0.21659 -0.07208,0.25227 -0.01519,0.0304 -0.05169,0.0449 -0.07208,0.0721 -0.05339,0.0712 -0.102487,0.16443 -0.180195,0.21623 -0.05049,0.0337 -0.161271,-0.0275 -0.21623,0 -0.05973,0.0299 -0.122082,0.043 -0.180195,0.0721 -0.03039,0.0152 -0.04169,0.0569 -0.07208,0.0721 -0.01074,0.005 -0.03066,-0.0107 -0.03604,0 -0.01074,0.0215 0.01699,0.0551 0,0.0721 -0.01699,0.017 -0.05509,-0.017 -0.07207,0 -0.04784,0.0478 0.04104,0.14152 -0.144155,0.0721 -0.218557,-0.082 -0.373399,-0.29481 -0.57662,-0.39642 -0.0059,-0.003 -0.164449,-0.0485 -0.180192,-0.0721 -0.01333,-0.02 0.0076,-0.0493 0,-0.0721 -0.01371,-0.0411 -0.04145,-0.0775 -0.07208,-0.10811 -0.0085,-0.008 -0.03067,0.0107 -0.03604,0 -0.01074,-0.0215 0.01074,-0.0506 0,-0.0721 -0.0054,-0.0107 -0.02755,0.008 -0.03604,0 -0.06191,-0.0619 -0.0866,-0.15867 -0.144156,-0.21623 -0.0414,-0.0414 -0.0553,-0.11775 -0.108117,-0.14416 -0.03397,-0.017 -0.07414,-0.0191 -0.108114,-0.036 -0.08083,-0.0404 -0.178432,-0.16085 -0.252272,-0.21623 -0.04077,-0.0306 -0.06253,-0.0853 -0.108114,-0.10811 -0.01074,-0.005 -0.02755,0.008 -0.03604,0 -0.02506,-0.0251 -0.09996,-0.24649 -0.07208,-0.28831 0.0149,-0.0224 0.05308,-0.017 0.07208,-0.036 0.03063,-0.0306 0.04145,-0.0775 0.07207,-0.10812 0.0887,-0.0887 0.197951,-0.0764 0.288311,-0.14415 0.02149,-0.0161 0.01704,-0.0531 0.03604,-0.0721 0.0127,-0.0127 0.136374,-0.0141 0.180192,-0.036 0.220287,-0.11014 -0.08824,0.0273 0.03604,-0.0721 0.295704,-0.23657 0.08871,0.0444 0.288311,-0.28832 z"
       id="path2658" /><path
       style="fill:#ff6600;stroke:#000000;stroke-width:0.264583"
       d="m 88.042503,135.72168 c 0.108336,0.0758 0.25468,0.10091 0.360386,0.18019 0.05198,0.039 0.08963,0.10781 0.144153,0.14416 0.05252,0.035 0.07506,0.0225 0.108117,0.0721 0.01458,0.0219 0.130942,0.17029 0.144155,0.1802 0.03039,0.0228 0.07554,0.0165 0.108117,0.036 0.0865,0.0519 0.201843,0.17299 0.288309,0.21623 0.08876,0.0444 -0.03253,-0.10461 0.108116,0.036 0.019,0.019 0.01704,0.0531 0.03604,0.0721 0.0085,0.008 0.02754,-0.008 0.03604,0 0.0085,0.008 -0.0085,0.0275 0,0.036 0.02207,0.0221 0.09432,0.0307 0.108114,0.0721 0.0076,0.0228 -0.0076,0.0493 0,0.0721 0.01074,0.0322 0.05688,0.0417 0.07208,0.0721 0.04438,0.0888 -0.104611,-0.0325 0.03604,0.10811 0.0085,0.008 0.02402,0 0.03604,0 0.01201,0.012 0.02661,0.0219 0.03604,0.036 0.04241,0.0636 0.05458,0.0906 0.108116,0.14416 0.0085,0.008 0.03066,-0.0108 0.03604,0 0.01074,0.0215 -0.0076,0.0493 0,0.0721 0.01151,0.0345 0.132533,0.11974 0.07207,0.18019 -0.0071,0.007 -0.222297,0.0981 -0.252269,0.10812 -0.03419,0.0114 -0.07588,-0.0161 -0.108117,0 -0.09599,0.048 -0.176041,0.14 -0.25227,0.21623 -0.02106,0.0211 -0.07828,0.12924 -0.108116,0.14416 -0.01074,0.005 -0.02754,-0.008 -0.03604,0 -0.01865,0.0187 -0.01738,0.1255 -0.03604,0.14415 -0.0085,0.008 -0.03066,-0.0107 -0.03604,0 -0.01074,0.0215 0.01074,0.0506 0,0.0721 -0.0054,0.0107 -0.02529,-0.005 -0.03604,0 -0.04443,0.0222 -0.130654,0.14415 -0.180192,0.14415 -0.05754,0 -0.212114,-0.10399 -0.252272,-0.14415 -0.02685,-0.0268 -0.05171,-0.12379 -0.07208,-0.14415 -0.04389,-0.0439 -0.08052,-0.0169 -0.108114,-0.0721 -0.01921,-0.0384 0.01921,-0.10571 0,-0.14416 -0.029,-0.058 -0.179073,-0.17795 -0.180194,-0.18019 -0.0054,-0.0107 0.0085,-0.0275 0,-0.036 -0.0085,-0.008 -0.02402,0 -0.03604,0 -0.02402,-0.012 -0.05718,-0.0137 -0.07208,-0.036 -0.01333,-0.02 0.01074,-0.0506 0,-0.0721 -0.0054,-0.0107 -0.02754,0.008 -0.03604,0 -0.03167,-0.0317 -0.08466,-0.20535 -0.108114,-0.25226 -0.04475,-0.0895 -0.03076,0.0155 -0.108117,-0.036 -0.02236,-0.0149 -0.01704,-0.0531 -0.03604,-0.0721 -0.04247,-0.0425 -0.101682,-0.0656 -0.144155,-0.10812 -0.0085,-0.008 0.01074,-0.0307 0,-0.036 -0.281567,-0.14078 0.142851,0.17889 -0.108114,-0.0721 -0.01699,-0.017 -0.06133,0.0215 -0.07208,0 -0.02729,-0.0546 0.0019,-0.12527 -0.108117,-0.1802 -0.04648,-0.0232 -0.137916,-0.0149 -0.180194,-0.036 -0.01074,-0.005 0.0085,-0.0275 0,-0.036 -0.0294,-0.0294 -0.216231,0.0466 -0.216231,-0.036 0,-0.034 0.04805,-0.0481 0.07208,-0.0721 0.03875,-0.0388 0.04155,-0.11363 0.07208,-0.14415 0.02817,-0.0282 0.108484,-0.0242 0.144153,-0.036 0.05731,-0.0191 0.0894,-0.0807 0.144155,-0.10812 0.01074,-0.005 0.02402,0 0.03604,0 0.03604,-0.012 0.07414,-0.0191 0.108117,-0.036 0.07734,-0.0387 0.0016,-0.0394 0.03604,-0.10812 0.0054,-0.0107 0.02529,0.005 0.03604,0 0.02402,-0.012 0.09611,-0.0841 0.108117,-0.10811 0.01093,-0.0219 0.02093,-0.093 0.03604,-0.10812 0.019,-0.019 0.05308,-0.017 0.07208,-0.036 0.019,-0.019 0.01299,-0.0583 0.03604,-0.0721 0.04247,-0.0255 0.0961,-0.024 0.144156,-0.036 z"
       id="path2660" /><path
       style="fill:#ac9d93;stroke:#000000;stroke-width:0.264583"
       d="m 95.084444,126.93605 4.905414,-6.31656 3.023892,0.40318 v 2.21752 l 3.42707,-0.0672 0.47038,2.15032 -8.198094,5.443 z"
       id="path2716" /><path
       style="display:inline;fill:#000000;stroke:#000000;stroke-width:0.289136"
       d="m 84.482913,136.3542 c 0.82736,0.0472 1.758194,-0.15219 2.507862,0.21931 0.06221,0.0308 0.08532,0.11541 0.147522,0.14623 0.08795,0.0436 0.302335,0.0803 0.368803,0.14621 0.125568,0.12446 0.126581,0.25422 0.295043,0.36554 0.06751,0.0446 0.338545,0.12936 0.368802,0.21931 0.01556,0.0463 -0.01554,0.1 0,0.14623 0.02914,0.0866 0.179814,0.1371 0.221284,0.21931 0.03539,0.0702 0.123108,0.21984 0.147522,0.29243 0.01553,0.0463 -0.01554,0.1 0,0.14622 0.02199,0.0653 0.12553,0.0808 0.147522,0.1462 0.01554,0.0463 -0.02199,0.1026 0,0.14622 0.01101,0.0218 0.06276,-0.0217 0.07376,0 0.02199,0.0436 -0.02199,0.1026 0,0.14622 0.0311,0.0617 0.108943,0.0888 0.147521,0.14621 0.02727,0.0405 -0.01554,0.0999 0,0.14621 0.01502,0.0446 0.132518,0.1747 0.147522,0.21932 0.09415,0.27994 0,0.99784 0,1.31593 0,0.28454 0.06977,0.67378 0,0.95039 -0.04724,0.18729 -0.173712,0.2052 -0.295043,0.36553 -0.05757,0.076 -0.04351,0.2025 -0.07376,0.29243 -0.05883,0.17493 -0.242907,0.18908 -0.295044,0.29242 -0.01101,0.0218 0.0174,0.0559 0,0.0732 -0.0174,0.0173 -0.05638,-0.0173 -0.07376,0 -0.03888,0.0385 -0.03488,0.1077 -0.07377,0.14622 -0.01995,0.0198 -0.253897,0.19892 -0.295043,0.21931 -0.02199,0.0109 -0.06276,-0.0217 -0.07376,0 -0.02199,0.0436 0.02727,0.10567 0,0.14622 -0.09106,0.13538 -0.362142,0.0997 -0.44256,0.21932 -0.208918,0.3106 0.330222,-0.0233 -0.147522,0.29243 -0.08453,0.0558 -0.192425,0.0476 -0.295044,0.0732 -0.201971,0.0501 -0.119074,0.15745 -0.368805,0.21933 -0.07156,0.0178 -0.155308,-0.0327 -0.221281,0 -0.139814,0.0694 -0.278974,0.0921 -0.442564,0.14621 -0.155991,0.0516 -1.880304,0.0459 -2.065299,0 -0.05334,-0.0131 -0.09418,-0.0598 -0.147522,-0.0732 -0.07156,-0.0178 -0.151305,0.0231 -0.221284,0 -0.04917,-0.0243 -0.09834,-0.0487 -0.147521,-0.0732 0,-0.0244 0.02045,-0.0596 0,-0.0731 -0.06469,-0.0428 -0.156588,-0.0304 -0.221282,-0.0732 -0.196695,-0.12997 0.295555,-0.0242 -0.07376,-0.14622 -0.04665,-0.0155 -0.106605,0.027 -0.147521,0 -0.09003,-0.0595 -0.230013,-0.34694 -0.368805,-0.43865 -0.09115,-0.0602 -0.391671,-0.21676 -0.442565,-0.29242 -0.0305,-0.0453 -0.03488,-0.10771 -0.07376,-0.1462 -0.03888,-0.0386 -0.108648,-0.0346 -0.147521,-0.0732 -0.03817,-0.0379 -0.03559,-0.25459 -0.07376,-0.29242 -0.0174,-0.0173 -0.05638,0.0172 -0.07376,0 -0.287869,-0.28534 0.01708,-0.0393 -0.07376,-0.21933 -0.05415,-0.10737 -0.350288,-0.43834 -0.368805,-0.51175 -0.01193,-0.0473 0.02199,-0.1026 0,-0.14621 -0.0246,-0.0487 -0.117024,-0.0277 -0.147522,-0.0731 -0.08186,-0.12169 -0.161245,-0.24652 -0.221281,-0.36554 -0.0354,-0.0702 0.02361,-0.2222 0,-0.29242 -0.01101,-0.0326 -0.05821,-0.0424 -0.07376,-0.0731 -0.07522,-0.14913 -0.02565,-0.72471 0,-0.87728 -0.05478,-0.13531 0.126021,-0.13409 0.147521,-0.21934 0.0589,-0.23344 -0.0395,-0.43342 0.07376,-0.65795 0.04356,-0.0864 0.167036,-0.13867 0.221282,-0.21932 0.196775,-0.29254 0.718828,-1.0142 1.032651,-1.16972 0.104488,-0.0518 0.261963,-0.0379 0.368802,-0.0732 0.05858,-0.0194 0.144283,-0.21772 0.147522,-0.21932 0.04398,-0.0217 0.103539,0.0218 0.147521,0 0.02199,-0.0109 -0.02045,-0.0596 0,-0.0731 0.04511,-0.0299 0.321097,-0.0989 0.368802,-0.14623 0.03888,-0.0385 0.03488,-0.1077 0.07377,-0.1462 0.0174,-0.0173 0.05177,0.0109 0.07376,0 0.306977,-0.15213 -0.07885,0.005 0.07376,-0.14622 0.09913,-0.0983 0.770861,-0.26978 0.885129,-0.29243 z"
       id="path3147" /><path
       style="fill:#ffff00;stroke:#000000;stroke-width:0.34376"
       id="path3270"
       sodipodi:type="arc"
       sodipodi:cx="85.14502"
       sodipodi:cy="140.1339"
       sodipodi:rx="3.1778443"
       sodipodi:ry="2.7976003"
       sodipodi:start="0"
       sodipodi:end="6.2335708"
       sodipodi:arc-type="arc"
       d="m 88.322864,140.1339 a 3.1778443,2.7976003 0 0 1 -3.138429,2.79738 3.1778443,2.7976003 0 0 1 -3.216282,-2.72799 3.1778443,2.7976003 0 0 1 3.058643,-2.86506 3.1778443,2.7976003 0 0 1 3.292157,2.65692"
       sodipodi:open="true" /><path
       style="fill:#ffe680;stroke:#000000;stroke-width:0.264583"
       d="m 95.042116,126.86666 c 0.0911,-0.0683 0.05874,-0.0336 0.125859,-0.12586 0.31428,-0.43213 -0.08991,0.13358 0.143841,-0.23374 0.100711,-0.15825 0.238271,-0.29447 0.341619,-0.4495 0.01487,-0.0223 0.02109,-0.0496 0.03596,-0.0719 0.04942,-0.0741 0.121129,-0.13072 0.1798,-0.19778 0.0531,-0.0607 0.117094,-0.11271 0.161819,-0.17979 0.0105,-0.0158 0.007,-0.0385 0.01799,-0.054 0.05013,-0.0702 0.12532,-0.12968 0.1798,-0.19777 0.04711,-0.0589 0.03313,-0.0221 0.107879,-0.0719 0.06047,-0.0403 0.107026,-0.11485 0.161819,-0.16181 0.0164,-0.0141 0.03988,-0.0196 0.05394,-0.036 0.02275,-0.0265 0.03455,-0.0608 0.05394,-0.0899 0.119952,-0.17993 0.245073,-0.35617 0.359598,-0.5394 0.04802,-0.036 0.02854,-0.0994 0.05394,-0.14384 0.02877,-0.0503 0.11067,-0.12175 0.14384,-0.1798 0.0094,-0.0165 0.0061,-0.0391 0.01797,-0.0539 0.01349,-0.0169 0.04138,-0.0184 0.05394,-0.036 0.02976,-0.0417 0.0232,-0.10288 0.05394,-0.14384 0.01797,-0.024 0.05073,-0.0327 0.07192,-0.0539 0.107929,-0.10793 -0.01802,-0.0179 0.0899,-0.12586 0.01894,-0.0189 0.05011,-0.0204 0.07192,-0.036 0.02069,-0.0148 0.03325,-0.0392 0.05394,-0.0539 0.0218,-0.0156 0.05024,-0.0202 0.07192,-0.036 0.06889,-0.0501 0.137549,-0.10159 0.197781,-0.16182 0.04832,-0.0483 0.08259,-0.10894 0.12586,-0.16182 0.02,-0.0245 0.138094,-0.16389 0.161819,-0.19778 0.05489,-0.0784 0.103193,-0.19044 0.1798,-0.25172 0.03139,-0.0251 0.0814,-0.0237 0.107879,-0.0539 0.02013,-0.023 0.0051,-0.0622 0.01799,-0.0899 0.02956,-0.0633 0.0732,-0.11912 0.107879,-0.1798 0.01331,-0.0233 0.01987,-0.0505 0.03596,-0.0719 0.02035,-0.0271 0.05022,-0.0459 0.07192,-0.0719 0.05542,-0.0665 0.07242,-0.16694 0.12586,-0.23374 0.0084,-0.0105 0.02792,-0.007 0.03596,-0.018 0.01937,-0.0258 0.01934,-0.0622 0.03596,-0.0899 0.0558,-0.093 0.120806,-0.1812 0.1798,-0.2697 0.06248,-0.0937 0.0904,-0.1984 0.161819,-0.28768 0.02119,-0.0265 0.04986,-0.0462 0.07192,-0.0719 0.04188,-0.0489 0.066,-0.11296 0.107881,-0.16183 0.0087,-0.0102 0.02792,-0.007 0.03596,-0.018 0.07546,-0.10061 -0.02814,-0.013 0.03596,-0.0899 0.02748,-0.033 0.202981,-0.20179 0.21576,-0.23374 0.0067,-0.0167 -0.0035,-0.0363 0,-0.0539 0.0091,-0.0455 0.05379,-0.0536 0.07192,-0.0899 0.02866,-0.0573 0.06832,-0.12047 0.107878,-0.1798 0.02567,-0.0385 0.08929,-0.0527 0.107879,-0.0899 0.02646,-0.0529 -0.04165,0.0237 0.01799,-0.036 0.04794,0.006 0.09696,0.006 0.143825,0.018 0.0497,0.0124 0.0944,0.0408 0.14384,0.0539 0.10673,0.0285 0.2191,0.0147 0.32364,0.0539 0.18428,0.0691 -0.004,0.0155 0.1798,0.036 0.0625,0.007 0.11873,0.0472 0.1798,0.0539 0.0655,0.007 0.13342,-0.0143 0.19778,0 0.0262,0.006 0.0457,0.0302 0.0719,0.036 0.0293,0.007 0.0606,-0.007 0.0899,0 0.0262,0.006 0.0457,0.0301 0.0719,0.036 0.0774,0.0172 0.18842,0.008 0.2697,0.018 0.0841,0.0105 0.16772,0.0419 0.25172,0.0539 0.0789,0.0113 0.17383,-0.0195 0.25172,0 0.013,0.003 0.0229,0.0147 0.036,0.018 0.0437,0.0109 0.0984,0 0.14384,0 0.14869,0 0.38641,-0.0219 0.53939,0 0.079,0.0113 0.15359,0.0473 0.23374,0.0539 0.0819,0.007 0.16914,0 0.25172,0 0.006,0 -0.0121,-9.8e-4 -0.018,0 -0.0301,0.005 -0.0605,0.01 -0.0899,0.018 -0.0452,0.0129 -0.0761,0.036 -0.12586,0.036"
       id="path6287" /><path
       style="fill:#ffe680;stroke:#000000;stroke-width:0.264583"
       d="m 98.870639,130.61917 c 0.09745,-0.0195 0.194897,-0.039 0.292346,-0.0585 0.03898,-0.039 0.06464,-0.0995 0.116935,-0.11694 0.07396,-0.0247 0.156703,0.011 0.233876,0 0.105852,-0.0151 0.335584,-0.13119 0.409282,-0.17541 0.116942,-0.078 0.233872,-0.15591 0.350812,-0.23387 0.0195,-0.039 0.0277,-0.0861 0.0585,-0.11694 0.0616,-0.0616 0.17224,-0.0553 0.23387,-0.11693 0.0138,-0.0138 -0.0138,-0.0447 0,-0.0585 0.15512,-0.15511 0.41017,-0.21991 0.58469,-0.35081 0.0441,-0.0331 0.0711,-0.0864 0.11694,-0.11693 0.0162,-0.0108 0.039,0 0.0585,0 0.039,-0.0195 0.0861,-0.0277 0.11693,-0.0585 0.0689,-0.0689 0.1065,-0.16497 0.17541,-0.23388 0.0138,-0.0138 0.039,0 0.0585,0 0.039,-0.039 0.0864,-0.0711 0.11694,-0.11694 0.0108,-0.0162 -0.0174,-0.0498 0,-0.0585 0.0349,-0.0174 0.08,0.0123 0.11693,0 0.24791,-0.0826 0.44416,-0.37696 0.64316,-0.52621 0.0741,-0.0556 0.21142,-0.13495 0.29234,-0.17541 0.0966,-0.0483 0.11268,0.0324 0.23388,-0.0585 0.16234,-0.12175 0.25842,-0.22257 0.46775,-0.29234 0.037,-0.0123 0.0831,0.0193 0.11694,0 0.24084,-0.13763 0.41797,-0.3761 0.64315,-0.52622 0.13698,-0.0913 0.329,-0.12981 0.46775,-0.23388 0.0441,-0.0331 0.0676,-0.0923 0.11694,-0.11693 0.0349,-0.0174 0.08,0.0123 0.11694,0 0.164,-0.0547 0.36198,-0.2687 0.52622,-0.35082 0.16166,-0.0808 0.36931,-0.0969 0.52621,-0.1754 0.039,-0.0195 0.0222,-0.0928 0.0585,-0.11694 0.0793,-0.0529 0.16213,-0.0811 0.23388,-0.11694 0.10024,-0.0501 0.024,-0.11343 0.11694,-0.1754 0.0513,-0.0342 0.13182,-0.0149 0.1754,-0.0585 0.22819,-0.22819 -0.0135,-0.0314 0.0585,-0.17541 0.12167,-0.24333 -0.004,0.0625 0.11694,-0.0585 0.0366,-0.0366 -0.002,-0.11457 0.0585,-0.1754"
       id="path7297" /><path
       style="fill:#ffe680;stroke:#000000;stroke-width:0.264583"
       d="m 106.35464,122.90129 0.58469,2.57263"
       id="path7299" /><path
       style="fill:#ffe680;stroke:#000000;stroke-width:0.264583"
       d="m 103.08039,123.0767 3.33272,-0.0585"
       id="path7301" /><path
       style="fill:#ffe680;stroke:#000000;stroke-width:0.264583"
       d="m 103.08039,121.03029 v 2.04641"
       id="path7303" /><path
       style="fill:#ffe680;stroke:#000000;stroke-width:0.264583"
       d="m 98.636766,130.91151 8.302564,-5.55453"
       id="path7305" /><path
       style="fill:#ffe680;stroke:#000000;stroke-width:0.264583"
       d="m 95.18711,126.9941 4.91137,-6.66543"
       id="path7307" /><path
       style="fill:#ffe680;stroke:#000000;stroke-width:0.264583"
       d="m 103.37273,121.03029 -3.391185,-0.64315"
       id="path7309" /><path
       style="fill:#ffe680;stroke:#000000;stroke-width:0.264583"
       d="m 103.13886,120.91336 v 2.22181"
       id="path7311" /><path
       style="fill:#ffe680;stroke:#000000;stroke-width:0.264583"
       d="m 107.03489,125.45065 -8.216821,5.33373"
       id="path7313" /><path
       style="fill:#ffe680;stroke:#000000;stroke-width:1.065;stroke-dasharray:none"
       d="m 98.942455,130.61329 8.168145,-5.08583 -0.77058,-2.54291 0.61647,2.54291 z"
       id="path8844" /><path
       style="fill:#ffe680;stroke:#000000;stroke-width:0.865;stroke-dasharray:none"
       d="m 95.07362,126.90084 4.845489,-6.52866 z"
       id="path8846" /><path
       style="fill:#ffe680;stroke:#000000;stroke-width:0.765;stroke-dasharray:none"
       d="m 106.34576,123.17746 -3.21333,-0.051 -0.10201,-2.09121 0.051,2.0402 z"
       id="path8848" /><path
       style="fill:#ffe680;stroke:#000000;stroke-width:0.865;stroke-dasharray:none"
       d="m 103.13243,120.98424 -3.264325,-0.51005 z"
       id="path8850" /><path
       style="fill:#ffe680;stroke:#000000;stroke-width:0.665;stroke-dasharray:none"
       d="m 99.001015,130.72623 8.160825,-5.35555"
       id="path8852" /></g></svg>
