<?xml version="1.0" encoding="UTF-8" standalone="no"?>
<!-- Created with Inkscape (http://www.inkscape.org/) -->

<svg
   width="210mm"
   height="297mm"
   viewBox="0 0 210 297"
   version="1.1"
   id="svg5"
   inkscape:version="1.2.2 (732a01da63, 2022-12-09)"
   sodipodi:docname="dessin.svg"
   xmlns:inkscape="http://www.inkscape.org/namespaces/inkscape"
   xmlns:sodipodi="http://sodipodi.sourceforge.net/DTD/sodipodi-0.dtd"
   xmlns="http://www.w3.org/2000/svg"
   xmlns:svg="http://www.w3.org/2000/svg">
  <sodipodi:namedview
     id="namedview7"
     pagecolor="#ffffff"
     bordercolor="#000000"
     borderopacity="0.25"
     inkscape:showpageshadow="2"
     inkscape:pageopacity="0.0"
     inkscape:pagecheckerboard="0"
     inkscape:deskcolor="#d1d1d1"
     inkscape:document-units="mm"
     showgrid="false"
     inkscape:zoom="0.914906"
     inkscape:cx="396.76207"
     inkscape:cy="560.71334"
     inkscape:window-width="2560"
     inkscape:window-height="1369"
     inkscape:window-x="-8"
     inkscape:window-y="-8"
     inkscape:window-maximized="1"
     inkscape:current-layer="layer2" />
  <defs
     id="defs2" />
  <g
     inkscape:label="Calque 1"
     inkscape:groupmode="layer"
     id="layer1" />
  <g
     inkscape:groupmode="layer"
     id="layer2"
     inkscape:label="Calque 2">
    <path
       style="fill:#000000;stroke-width:0.248621"
       d="M 50.716245,236.26971 C 62.973056,207.06134 66.80331,197.8072 66.80331,197.8072 l -8.426557,-4.04869 -15.576364,39.0409 z"
       id="path221" />
    <path
       style="fill:#000000;stroke-width:0.233163"
       d="M 140.81489,234.96836 C 130.0348,205.75999 126.66602,196.50585 126.66602,196.50585 l 7.41131,-4.04869 13.69969,39.0409 z"
       id="path221-8" />
    <path
       style="fill:#808080;stroke-width:0.264583"
       d="M 59.862706,194.3369 98.614409,102.95229 113.074,78.660173 104.10905,104.97663 64.489776,196.65044 Z"
       id="path353"
       sodipodi:nodetypes="cccccc" />
    <path
       style="fill:#808080;stroke-width:0.218801"
       d="M 131.72687,194.19231 105.22571,102.8077 91.240018,73.310129 l 10.228072,31.521911 27.09446,91.67381 z"
       id="path353-2"
       sodipodi:nodetypes="cccccc" />
    <path
       style="fill:#ff0000;stroke-width:0.264583"
       d="m 65.935735,197.22882 c 0.457025,-1.40238 0.682691,-2.77657 1.445958,-4.04869 0.14028,-0.23379 0.427144,-0.35152 0.578385,-0.57838 0.114384,-0.17158 0.129558,-2.11919 0,-2.31354 -0.05125,-0.0769 -1.143339,-0.55152 -1.156769,-0.57838 -0.09761,-0.19521 -0.08816,-1.9068 0,-2.02434 0.576244,-0.76832 2.488467,-0.75332 2.602727,-0.86758 0.06816,-0.0682 -0.08622,-0.24608 0,-0.28919 0.551765,-0.27588 0.557276,0.33141 0.867574,-0.28919 0.04311,-0.0862 -0.06816,-0.22103 0,-0.28919 0.06816,-0.0682 0.221031,0.0682 0.289192,0 0.289283,-0.28928 -0.371099,-6.09477 0,-6.65141 0.192797,-0.2892 0.659038,-0.30034 0.867577,-0.57839 0.208539,-0.27805 0.300331,-0.65903 0.578385,-0.86757 0.154233,-0.11568 0.417967,0.10694 0.578381,0 0.179351,-0.11957 0.136777,-0.42597 0.289193,-0.57839 0.439875,-0.43987 1.848326,0.52806 2.313535,-0.86757 0.373494,-1.12049 0.358629,-2.45241 0.867574,-3.4703 0.55164,-1.10328 -0.657498,-4.54796 0.289192,-5.49465 0.573061,-0.57306 1.397802,-0.84349 2.024343,-1.15677 1.203547,-0.60177 -0.309155,0.02 0.289192,-0.57838 0.06816,-0.0682 0.202973,0.0431 0.289192,0 0.138378,-0.0692 1.657784,-1.36859 1.735151,-1.44596 0.06816,-0.0682 -0.06816,-0.22103 0,-0.28919 0.152419,-0.15242 0.385588,-0.19279 0.578385,-0.28919 0.289189,-0.38559 0.559014,-0.7865 0.867574,-1.15677 0.261823,-0.31418 0.684675,-0.50177 0.867576,-0.86757 0.105135,-0.21028 0.431475,-3.90641 0.289193,-4.04869 -0.06816,-0.0682 -0.246084,0.0862 -0.289193,0 -0.488241,-0.97648 0.377426,-3.49479 0,-4.62707 -0.310623,-0.93187 -0.622826,-2.75859 -0.289192,-3.75949 0.08622,-0.25866 0.414793,-0.36026 0.578385,-0.57839 0.337251,-0.44967 0.470116,-1.0485 0.867574,-1.44596 0.121184,-0.12118 0.692308,-0.20155 0.867576,-0.28919 0.243867,-0.12193 0.334516,-0.45645 0.578382,-0.57838 0.08622,-0.0431 0.22103,0.0682 0.289192,0 0.06817,-0.0682 -0.06816,-0.22103 0,-0.28919 0.136327,-0.13633 0.405943,0.0862 0.578385,0 1.203547,-0.60178 -0.309158,0.02 0.289192,-0.57839 0.136327,-0.13632 0.405942,0.0862 0.578382,0 0.501996,-0.25099 0.629951,-0.51636 1.156769,-0.86757 0.03913,-0.0261 1.298762,-0.21559 1.445958,-0.28919 0.17244,-0.0862 -0.08622,-0.40595 0,-0.57839 0.323533,-0.64707 1.094907,-1.03304 1.445959,-1.73515 0.152042,-0.30408 0,-1.0986 0,-1.44596 0,-0.9181 0.288737,-2.31489 0,-3.18111 -0.638551,-1.91565 -1.507795,-4.33121 -0.289193,-6.36222 0.14028,-0.23379 0.408059,-0.36547 0.578385,-0.57838 2.130517,-2.66315 1.889633,-2.41652 4.337878,-4.04868 0.408964,-0.27265 0.701768,-1.00511 1.156766,-1.15677 0.182901,-0.061 0.395483,0.061 0.578385,0 0.90266,-0.30089 -0.0964,-0.1928 0.289192,-0.57839 0.598347,-0.59835 -0.02339,0.91436 0.578382,-0.28919 0.168325,-0.33665 0,-1.34249 0,-1.73515 0,-2.04449 -0.506003,-7.26615 0.289192,-9.25414 0.262432,-0.65608 0.870214,-0.87285 1.156769,-1.44596 0.0431,-0.0862 -0.06817,-0.22103 0,-0.28919 0.19183,-0.19183 1.14429,-0.35213 1.44596,-0.57838 0.62026,-0.4652 0.67051,-0.9597 1.15676,-1.44596 0.0682,-0.0682 0.22103,0.0682 0.2892,0 0.0682,-0.0682 -0.0682,-0.22103 0,-0.28919 0.14324,-0.14324 1.00704,-0.0646 1.15676,-0.28919 0.26644,-0.39966 0.1031,-0.91913 0.57839,-1.15677 0.0862,-0.0431 0.22103,0.0682 0.28919,0 0.13633,-0.13633 -0.0862,-0.40595 0,-0.57839 0.18515,-0.37029 0.44985,-0.77117 0.57838,-1.15676 0.41336,-1.24008 -0.46181,-5.72779 0,-6.651415 0.0431,-0.08622 0.24609,0.08622 0.2892,0 0.0862,-0.172442 -0.13633,-0.442058 0,-0.578384 0.13632,-0.136327 0.44205,0.136326 0.57838,0 0.13632,-0.136327 -0.0862,-0.405942 0,-0.578382 0.0826,-0.165256 1.23978,-0.37221 1.44596,-0.578384 0.13632,-0.136327 -0.0862,-0.405943 0,-0.578385 0.36907,-0.738137 0.0499,-0.728149 0.28919,-1.445958 0.0431,-0.129331 0.24608,-0.159862 0.28919,-0.289193 0.40658,-1.21975 -0.28919,-2.5714 -0.28919,-3.759493"
       id="path716" />
    <path
       style="fill:#ff0000;stroke-width:0.264583"
       d="m 92.25219,82.419668 c 1.386898,-0.545365 1.504082,-0.260131 2.602725,0.289192 0.247327,0.123661 0.620252,0.165529 0.867577,0.289192 0.520583,0.260292 0.591349,1.320814 0.867574,1.735151 0.151241,0.226859 0.427143,0.351523 0.578384,0.578382 0.203362,0.305043 0,1.350822 0,1.735153 0,0.39229 0.11702,1.094896 0,1.445959 -0.137411,0.412234 -0.416425,0.416425 -0.578384,0.578381 -0.123566,0.123569 -0.965179,2.118329 -0.867574,2.313536 0.308922,0.617844 0.885931,0.307546 1.156766,0.578384 0.38559,0.385588 -0.613468,0.277498 0.289192,0.578385 0.182901,0.06097 0.405942,-0.08622 0.578385,0 0.03505,0.01752 0.242366,0.82075 0.289192,0.867574 0.202956,0.202956 0.969394,0.164277 1.156766,0.289192 0.179351,0.119565 0.136774,0.425966 0.289192,0.578384 0.06816,0.06816 0.246081,-0.08622 0.289193,0 0.08622,0.17244 -0.08622,0.405942 0,0.578382 0.04311,0.08622 0.221027,-0.06816 0.289192,0 0.14266,0.142658 0.0995,3.271285 0,3.470304 -0.06097,0.121933 -0.228227,0.167256 -0.289192,0.28919 -0.129331,0.258662 0.09145,0.593225 0,0.867576 -0.139481,0.418436 -0.910998,0.376034 -1.156769,0.867575 -0.290275,0.58055 0.578384,-0.0527 0.578384,0.57838"
       id="path718" />
    <path
       style="fill:#ff0000;stroke-width:0.264583"
       d="m 105.26582,111.33885 c -3.0239,0 0.11138,-0.17244 -1.73515,0.28919 -0.37407,0.0935 -0.79097,-0.12193 -1.15677,0 -1.02561,0.34187 -0.86757,1.36433 -0.86757,2.31354 0,0.38559 -0.27265,0.88411 0,1.15676 0.0682,0.0682 0.22103,-0.0682 0.28919,0 0.15242,0.15242 0.13677,0.42597 0.28919,0.57839 0.1446,0.14459 0.43379,0.14459 0.57838,0.28919 0.0682,0.0682 -0.0862,0.24608 0,0.28919 0.17245,0.0862 0.39549,-0.061 0.57839,0 0.25866,0.0862 0.33451,0.45645 0.57838,0.57839 0.17244,0.0862 0.49217,-0.17245 0.57839,0 0.0862,0.17243 -0.13633,0.44205 0,0.57838 0.13632,0.13632 0.40594,-0.0862 0.57838,0 0.0862,0.0431 -0.0682,0.22103 0,0.28919 0.0949,0.0949 1.06958,0.11482 1.44596,0.86758 0.12933,0.25866 -0.12933,0.60891 0,0.86757 0.0431,0.0862 0.24608,-0.0862 0.28919,0 0.0862,0.17244 0,0.38559 0,0.57838 0,1.29965 0.0118,0.2714 -0.57838,1.15677 -0.10695,0.16042 0.061,0.39548 0,0.57838 -0.12967,0.389 -1.01692,0.27971 -0.57839,1.15677 0.30642,0.61282 1.76685,0.64177 2.31354,1.73515 0.4049,0.80982 0.0927,4.43055 0.28919,4.62707 0.0682,0.0682 0.24608,-0.0862 0.28919,0 0.23689,0.47377 0.0676,0.93522 0.57839,1.44596 0.16698,0.16699 1.02946,0.19648 1.15676,0.57839 0.061,0.1829 -0.0862,0.40594 0,0.57838 0.0206,0.0412 0.65914,0.24226 0.86758,0.86757 0.13863,0.41591 0.1594,6.6218 0,6.94061 -0.36728,0.73456 -0.23948,0.43832 0,1.15677 0.061,0.1829 -0.0862,0.40594 0,0.57838 0.0877,0.17533 1.10555,0.35144 1.44596,0.57838 0.87552,-0.71361 0.49742,0.78662 0.57838,0.86758 0.13633,0.13632 0.49216,-0.17244 0.57838,0 0.0739,0.14786 0.4375,4.47134 0.2892,4.91626 0.10809,0.63001 -0.48199,0.0964 -0.57839,0.28919 -0.17014,0.34029 -0.20759,2.76594 0,3.18111 0.12194,0.24387 0.45645,0.33451 0.57839,0.57838 0.0431,0.0862 -0.0682,0.22103 0,0.2892 0.59835,0.59834 -0.0234,-0.91436 0.57838,0.28919 0.16586,0.33172 1.26916,1.93594 1.44596,2.02434 0.46678,0.23339 1.45627,0.59901 1.73515,1.15677 0.47682,0.95364 -0.45627,7.01773 0,8.38656 0.0863,0.25881 2.37301,2.63247 2.89192,2.89192 0.0862,0.0431 0.22103,-0.0682 0.28919,0 0.0964,0.0964 0.19279,0.77118 0.28919,0.86757 0.59835,0.59835 -0.0234,-0.91435 0.57838,0.28919 0.58648,1.17296 -0.85887,6.95801 -0.28919,8.09738 0.30984,0.61967 0.14016,0.85869 0.28919,1.15676 0.0862,0.17245 0.44206,-0.13632 0.57839,0 0.15242,0.15242 0.13677,0.42597 0.28919,0.57839 0.0682,0.0682 0.19774,-0.0305 0.28919,0 1.20991,-0.52369 0.33452,0.45645 0.57839,0.57838 0.8184,0.40921 0.46479,-0.62994 0.86757,0.57838 0.50094,1.50283 -0.51907,8.21601 0,9.25414 0.27974,0.55949 0.77852,0.77852 1.15677,1.15677 0.0682,0.0682 -0.0682,0.22103 0,0.28919 0.10719,0.1072 0.9781,0.19986 1.15676,0.28919 1.20355,0.60178 -0.30915,-0.02 0.2892,0.57839 0.281,0.281 0.91391,-0.19651 1.44596,0.86757"
       id="path720" />
    <path
       style="fill:#ff0000;stroke-width:0.264583"
       d="m 66.803309,197.22882 c 0.0827,-1.36326 -1.105144,0.34082 -1.445959,0 -0.06816,-0.0682 0.04311,-0.20297 0,-0.28919 -0.276881,-0.55376 -1.288663,-1.47136 -0.867574,-2.31354 0.268552,-0.5371 1.005047,-0.64712 1.445959,-0.86757 0.172439,-0.0862 0.492162,0.17244 0.578384,0 0,-1.63876 -0.192796,-0.0964 0.28919,-0.57839 0.446786,-0.44678 -0.298778,-2.00516 0,-2.60272 0.121936,-0.24387 0.456451,-0.33452 0.578384,-0.57839 0.31908,-0.63815 0.289193,-1.236 0.289193,-2.02434"
       id="path722" />
    <path
       style="fill:#ff0000;stroke-width:0.264583"
       d="m 63.333007,194.62609 c 1.529641,-0.48036 2.791,0 4.337879,0 0.863883,0 1.3522,0.18752 1.73515,-0.57838 0.08622,-0.17244 -0.08622,-0.40594 0,-0.57838 0.121933,-0.24387 0.456449,-0.33452 0.578385,-0.57839 0.242059,-0.48412 0.09215,-2.22138 -0.289193,-2.60273 -0.06816,-0.0682 -0.192793,0 -0.289192,0 -0.192794,-0.19279 -0.456448,-0.33451 -0.578384,-0.57838 -0.08622,-0.17244 0.08622,-0.40594 0,-0.57838 -0.04311,-0.0862 -0.20297,0.0431 -0.289192,0 -0.387329,-0.19367 -0.400712,-0.68991 -0.578382,-0.86758 -0.152419,-0.15241 -0.425966,-0.13677 -0.578385,-0.28919 -0.136326,-0.13632 0.106945,-0.41797 0,-0.57838 -0.298087,-0.44714 -1.484836,-1.6574 -1.156766,-2.31354 0.481063,-0.96213 2.934838,0.12314 3.759494,-0.28919 0.243866,-0.12193 0.319722,-0.49216 0.578381,-0.57838 0.67268,-0.22423 1.419612,-0.27602 2.024343,-0.57839 0.620459,-0.31023 -0.04207,-0.26815 0.578385,-0.57838 0.08622,-0.0431 0.246081,0.0862 0.289192,0 0,-1.63875 -0.192794,-0.0964 0.289192,-0.57838 0.144299,-0.1443 0,-1.21952 0,-1.44596 0,-0.68246 0.354561,-2.93846 0,-3.4703 -0.192796,-0.1928 -0.38559,-0.38559 -0.578384,-0.57839 0,-0.0964 0.04311,-0.20297 0,-0.28919 -0.565872,-1.13175 -0.01252,0.55336 -0.578385,-0.57838 -0.04311,-0.0862 0.06816,-0.22103 0,-0.2892 -0.436229,-0.43622 -2.017773,-0.30232 -1.445958,-1.44595 0.160861,-0.32172 1.663343,-2.19321 2.024343,-2.31354 0.182901,-0.061 0.405942,0.0862 0.578384,0 0.08622,-0.0431 -0.06816,-0.22103 0,-0.28919 0.136327,-0.13633 0.442056,0.13633 0.578382,0 0.152419,-0.15242 0.136776,-0.42597 0.289192,-0.57838 0.186296,-0.1863 0.883822,0.091 1.156769,0 1.209908,0.52368 0.334516,-0.45645 0.578382,-0.57839 0.308472,-0.15423 0.848297,0.15424 1.156769,0 0.181277,-0.0906 1.374026,-0.94097 1.445958,-1.15676 0.06097,-0.18291 -0.06097,-0.39549 0,-0.57839 0.04401,-0.13203 0.75152,-1.09874 0.867574,-1.15677 0.08622,-0.0431 0.221031,0.0682 0.289193,0 0.136326,-0.13632 -0.08622,-0.40594 0,-0.57838 0.121936,-0.24387 0.492164,-0.31972 0.578384,-0.57838 0.06097,-0.1829 -0.06097,-0.39549 0,-0.57839 0.02745,-0.0824 0.561007,-1.13939 0.578385,-1.15676 0.06816,-0.0682 0.23572,0.0802 0.289189,0 0.346313,-0.51947 0.863817,-1.72764 1.156769,-2.31354 0.08622,-0.17244 -0.08622,-0.40594 0,-0.57838 0.0964,-0.1928 0.481986,-0.0964 0.578385,-0.28919 0.286006,-0.57202 0.0099,-1.46583 0.289189,-2.02435 0.121936,-0.24387 0.456451,-0.33451 0.578385,-0.57838 0.237463,-0.47493 0.126986,-2.67316 0,-3.18111 -0.03307,-0.13226 -0.228225,-0.16726 -0.289193,-0.28919 -0.04311,-0.0862 0.06816,-0.22103 0,-0.28919 -0.06816,-0.0682 -0.246081,0.0862 -0.289192,0 -0.08622,-0.17244 0.08622,-0.40595 0,-0.57839 -0.04311,-0.0862 -0.246081,0.0862 -0.289189,0 -0.08622,-0.17244 0.06096,-0.39548 0,-0.57838 -0.315323,-0.94597 -0.867577,-0.86115 -0.867577,-2.02434"
       id="path724" />
  </g>
</svg>
