<?xml version="1.0" encoding="UTF-8" standalone="no"?>
<!-- Created with Inkscape (http://www.inkscape.org/) -->

<svg
   width="210mm"
   height="297mm"
   viewBox="0 0 210 297"
   version="1.1"
   id="svg89691"
   inkscape:version="1.2.2 (732a01da63, 2022-12-09)"
   sodipodi:docname="leather_vest.svg"
   xmlns:inkscape="http://www.inkscape.org/namespaces/inkscape"
   xmlns:sodipodi="http://sodipodi.sourceforge.net/DTD/sodipodi-0.dtd"
   xmlns="http://www.w3.org/2000/svg"
   xmlns:svg="http://www.w3.org/2000/svg">
  <sodipodi:namedview
     id="namedview89693"
     pagecolor="#ffffff"
     bordercolor="#666666"
     borderopacity="1.0"
     inkscape:showpageshadow="2"
     inkscape:pageopacity="0.0"
     inkscape:pagecheckerboard="0"
     inkscape:deskcolor="#d1d1d1"
     inkscape:document-units="mm"
     showgrid="false"
     inkscape:zoom="1.2499296"
     inkscape:cx="396.42234"
     inkscape:cy="460.02592"
     inkscape:window-width="1920"
     inkscape:window-height="991"
     inkscape:window-x="-9"
     inkscape:window-y="-9"
     inkscape:window-maximized="1"
     inkscape:current-layer="layer1" />
  <defs
     id="defs89688" />
  <g
     inkscape:label="Calque 1"
     inkscape:groupmode="layer"
     id="layer1">
    <path
       style="fill:none;stroke:#000000;stroke-width:0.965;stroke-linecap:butt;stroke-linejoin:miter;stroke-dasharray:none;stroke-opacity:1"
       d="M 91.590967,63.615482 H 108.4529 l 9.19742,12.263226 c 0,0 20.57127,3.362952 29.12516,8.814194 5.49298,3.500577 10.12891,8.730571 13.02968,14.562581 13.3325,26.805047 17.24516,88.141937 17.24516,88.141937 l -12.26323,1.91613 -15.32903,-65.14839 v 83.16 H 96.189677"
       id="path96955"
       sodipodi:nodetypes="cccaaccccc" />
    <path
       style="fill:none;stroke:#000000;stroke-width:0.965;stroke-linecap:butt;stroke-linejoin:miter;stroke-dasharray:none;stroke-opacity:1"
       d="M 103.99162,63.637557 H 87.129683 l -9.19742,12.263226 c 0,0 -20.571274,3.362952 -29.12516,8.814194 -5.492975,3.500577 -10.12891,8.730571 -13.02968,14.562581 C 22.44492,126.08261 18.532263,187.4195 18.532263,187.4195 l 12.26323,1.91613 15.32903,-65.14839 v 83.16 h 53.268383"
       id="path96955-6"
       sodipodi:nodetypes="cccaaccccc" />
    <path
       style="fill:none;stroke:#000000;stroke-width:0.965;stroke-linecap:butt;stroke-linejoin:miter;stroke-dasharray:none;stroke-opacity:1"
       d="m 20.190504,187.68484 -0.839012,4.90539 8.758071,1.47678 0.703521,-4.94507 z"
       id="path97004"
       sodipodi:nodetypes="ccccc" />
    <path
       style="fill:none;stroke:#000000;stroke-width:0.965;stroke-linecap:butt;stroke-linejoin:miter;stroke-dasharray:none;stroke-opacity:1"
       d="m 175.39247,187.55243 0.83901,4.90539 -8.75807,1.47678 -0.70352,-4.94507 z"
       id="path97004-33"
       sodipodi:nodetypes="ccccc" />
    <path
       style="fill:none;stroke:#000000;stroke-width:0.965;stroke-linecap:butt;stroke-linejoin:miter;stroke-dasharray:none;stroke-opacity:1"
       d="M 46.130805,124.52443 42.082984,90.058064"
       id="path1980"
       sodipodi:nodetypes="cc" />
    <path
       style="fill:none;stroke:#000000;stroke-width:0.965;stroke-linecap:butt;stroke-linejoin:miter;stroke-dasharray:none;stroke-opacity:1"
       d="M 149.35028,124.72802 153.3981,90.261653"
       id="path1980-0"
       sodipodi:nodetypes="cc" />
    <path
       style="fill:none;stroke:#000000;stroke-width:0.965;stroke-linecap:butt;stroke-linejoin:miter;stroke-dasharray:none;stroke-opacity:1"
       d="m 77.794839,76.261968 c 0,0 13.161784,2.703656 19.832161,2.672032 6.67906,-0.03167 19.83171,-2.863679 19.83171,-2.863679"
       id="path2618"
       sodipodi:nodetypes="cac" />
    <path
       style="fill:none;stroke:#000000;stroke-width:0.965;stroke-linecap:butt;stroke-linejoin:miter;stroke-opacity:1;stroke-dasharray:none"
       d="m 155.41878,92.965478 -2.3142,1.336106 H 42.544105 l -2.490206,-1.437721"
       id="path6252" />
    <path
       style="fill:none;stroke:#000000;stroke-width:0.965;stroke-linecap:butt;stroke-linejoin:miter;stroke-opacity:1;stroke-dasharray:none"
       d="m 32.653279,105.54732 11.911505,6.87711 H 150.53026 l 11.72854,-6.77148"
       id="path6254" />
    <path
       style="fill:none;stroke:#000000;stroke-width:0.965;stroke-linecap:butt;stroke-linejoin:miter;stroke-opacity:1;stroke-dasharray:none"
       d="M 44.440977,130.88409 28.406076,121.62634"
       id="path6256" />
    <path
       style="fill:none;stroke:#000000;stroke-width:0.965;stroke-linecap:butt;stroke-linejoin:miter;stroke-opacity:1;stroke-dasharray:none"
       d="M 46.202356,130.7486 H 149.17535"
       id="path6258" />
    <path
       style="fill:none;stroke:#000000;stroke-width:0.965;stroke-linecap:butt;stroke-linejoin:miter;stroke-opacity:1;stroke-dasharray:none"
       d="m 151.20771,130.61311 16.10508,-9.29827"
       id="path6260" />
    <path
       style="fill:none;stroke:#000000;stroke-width:0.965;stroke-linecap:butt;stroke-linejoin:miter;stroke-opacity:1;stroke-dasharray:none"
       d="m 25.292903,133.93742 16.114952,9.30397"
       id="path6262" />
    <path
       style="fill:none;stroke:#000000;stroke-width:0.965;stroke-linecap:butt;stroke-linejoin:miter;stroke-opacity:1;stroke-dasharray:none"
       d="M 46.17871,143.13484 H 149.26645"
       id="path6264" />
    <path
       style="fill:none;stroke:#000000;stroke-width:0.965;stroke-linecap:butt;stroke-linejoin:miter;stroke-opacity:1;stroke-dasharray:none"
       d="m 153.67355,142.94322 16.47871,-9.19742"
       id="path6266" />
    <path
       style="fill:none;stroke:#000000;stroke-width:0.965;stroke-linecap:butt;stroke-linejoin:miter;stroke-opacity:1;stroke-dasharray:none"
       d="m 22.801935,146.39226 15.722329,9.07729"
       id="path6268" />
    <path
       style="fill:none;stroke:#000000;stroke-width:0.965;stroke-linecap:butt;stroke-linejoin:miter;stroke-opacity:1;stroke-dasharray:none"
       d="M 46.17871,155.78129 H 149.45806"
       id="path6270" />
    <path
       style="fill:none;stroke:#000000;stroke-width:0.965;stroke-linecap:butt;stroke-linejoin:miter;stroke-opacity:1;stroke-dasharray:none"
       d="m 156.93097,155.20645 15.78306,-9.11236"
       id="path6272" />
    <path
       style="fill:none;stroke:#000000;stroke-width:0.965;stroke-linecap:butt;stroke-linejoin:miter;stroke-opacity:1;stroke-dasharray:none"
       d="m 21.269032,158.46387 14.716362,8.49649"
       id="path6326" />
    <path
       style="fill:none;stroke:#000000;stroke-width:0.965;stroke-linecap:butt;stroke-linejoin:miter;stroke-opacity:1;stroke-dasharray:none"
       d="M 46.370321,167.27806 H 149.26645"
       id="path6328" />
    <path
       style="fill:none;stroke:#000000;stroke-width:0.965;stroke-linecap:butt;stroke-linejoin:miter;stroke-opacity:1;stroke-dasharray:none"
       d="m 159.42193,166.51161 14.18003,-8.18684"
       id="path6330" />
    <path
       style="fill:none;stroke:#000000;stroke-width:0.965;stroke-linecap:butt;stroke-linejoin:miter;stroke-opacity:1;stroke-dasharray:none"
       d="m 19.927742,170.34387 13.726668,7.92509"
       id="path6332" />
    <path
       style="fill:none;stroke:#000000;stroke-width:0.965;stroke-linecap:butt;stroke-linejoin:miter;stroke-opacity:1;stroke-dasharray:none"
       d="M 46.370321,179.92451 H 148.88322"
       id="path6334" />
    <path
       style="fill:none;stroke:#000000;stroke-width:0.965;stroke-linecap:butt;stroke-linejoin:miter;stroke-opacity:1;stroke-dasharray:none"
       d="m 162.10452,179.15806 13.82591,-7.98239"
       id="path6336" />
    <path
       style="fill:none;stroke:#000000;stroke-width:0.965;stroke-linecap:butt;stroke-linejoin:miter;stroke-opacity:1;stroke-dasharray:none"
       d="M 45.987096,191.42129 H 149.84129"
       id="path6340" />
    <path
       style="fill:none;stroke:#000000;stroke-width:0.965;stroke-linecap:butt;stroke-linejoin:miter;stroke-opacity:1;stroke-dasharray:none"
       d="M 45.795482,202.53483 H 149.64968"
       id="path6342" />
    <path
       style="fill:none;stroke:#000000;stroke-width:0.965;stroke-linecap:butt;stroke-linejoin:miter;stroke-dasharray:none;stroke-opacity:1"
       d="m 86.862903,63.690942 c 0,0 7.112953,2.702943 10.831597,2.672058 3.73443,-0.03102 10.8315,-2.863705 10.8315,-2.863705"
       id="path2618-1"
       sodipodi:nodetypes="cac" />
    <rect
       style="fill:#ffffff;fill-opacity:1;stroke:#000000;stroke-width:0.964999;stroke-dasharray:none;stroke-opacity:1"
       id="rect12981"
       width="5.9615946"
       height="28.724043"
       x="55.009258"
       y="164.61385" />
    <rect
       style="fill:#ffffff;fill-opacity:1;stroke:#000000;stroke-width:0.964999;stroke-dasharray:none;stroke-opacity:1"
       id="rect12981-4"
       width="5.9615946"
       height="28.724043"
       x="135.28381"
       y="164.62665" />
    <path
       style="fill:none;stroke:#000000;stroke-width:0.965;stroke-linecap:butt;stroke-linejoin:miter;stroke-dasharray:none;stroke-opacity:1"
       d="M 97.6945,63.634174 V 207.3009"
       id="path13213"
       sodipodi:nodetypes="cc" />
    <path
       style="fill:#ffffff;fill-opacity:1;stroke:none;stroke-width:5.28271;stroke-dasharray:none;stroke-opacity:1"
       d="m 162.56954,348.70531 c -0.80384,-6.29305 1.76796,-9.73127 14.86099,-19.86751 15.25553,-11.81039 35.56527,-20.29066 68.79959,-28.72704 41.31817,-10.48843 40.08015,-10.39008 68.88954,-5.4727 13.89151,2.3711 31.28629,4.7638 38.65509,5.31713 l 13.39782,1.00604 v 26.58781 26.58781 H 265.21795 163.26334 Z"
       id="path15464"
       transform="scale(0.26458333)" />
    <path
       style="fill:#6c5141;fill-opacity:1;stroke:none;stroke-width:0.227905;stroke-dasharray:none;stroke-opacity:1"
       d="m 634.45863,730.26756 c -0.042,-0.30071 -0.51927,-3.65391 -1.06051,-7.45155 -0.54123,-3.79763 -0.98073,-6.90884 -0.97666,-6.9138 0.0242,-0.0295 28.98295,-4.5292 29.00521,-4.50693 0.056,0.056 2.48624,14.41898 2.44644,14.45879 -0.0362,0.0362 -29.07841,4.95775 -29.26638,4.95956 -0.0427,4.4e-4 -0.10252,-0.22008 -0.1481,-0.54607 z"
       id="path23995"
       transform="scale(0.26458333)" />
    <path
       style="fill:#6c5141;fill-opacity:1;stroke:none;stroke-width:0.322306;stroke-dasharray:none;stroke-opacity:1"
       d="m 620.02051,695.45092 c -2.31822,-9.85231 -4.18545,-17.9405 -4.14941,-17.97377 0.11486,-0.10603 46.34754,-26.77625 46.36924,-26.749 0.0468,0.0588 1.52513,15.16361 2.16346,22.10542 1.13516,12.34488 2.74306,32.00051 2.74306,33.53242 v 0.34086 l -1.0032,0.1508 c -0.55175,0.0829 -1.14825,0.17434 -1.32554,0.20312 -0.26258,0.0426 -0.32235,0.0251 -0.32235,-0.0946 0,-0.0808 -0.052,-0.16685 -0.11563,-0.19125 -0.0636,-0.0244 -8.22563,1.31203 -18.13787,2.96986 -19.13073,3.19964 -21.65361,3.61705 -21.8703,3.6185 -0.10892,7e-4 -0.98862,-3.62045 -4.35146,-17.91237 z"
       id="path24861"
       transform="scale(0.26458333)" />
    <path
       style="fill:#6c5141;fill-opacity:1;stroke:none;stroke-width:0.455809;stroke-dasharray:none;stroke-opacity:1"
       d="m 614.86744,673.38896 c -0.0675,-0.18407 -10.02302,-42.53597 -10.08084,-42.88496 -0.0326,-0.19641 4.44427,-2.82712 25.76766,-15.14179 14.19387,-8.19725 25.81897,-14.86697 25.83355,-14.82161 0.0627,0.1951 1.97198,15.67183 2.72365,22.07784 1.2631,10.7645 2.72242,23.95223 2.65501,23.99284 -1.20161,0.72394 -46.70411,26.93389 -46.7593,26.93389 -0.0453,0 -0.10823,-0.0703 -0.13973,-0.15621 z"
       id="path24863"
       transform="scale(0.26458333)" />
    <path
       style="fill:#6c5141;fill-opacity:1;stroke:none;stroke-width:0.455809;stroke-dasharray:none;stroke-opacity:1"
       d="m 603.72829,626.08759 c -0.0478,-0.18965 -2.09159,-8.86447 -4.5417,-19.27739 l -4.45475,-18.93257 3.94541,-2.27635 c 2.16998,-1.25199 14.60253,-8.43068 27.62791,-15.95266 13.02537,-7.52197 23.69175,-13.66839 23.70307,-13.65871 0.13604,0.11635 3.57273,23.59897 4.97744,34.01042 0.31531,2.337 0.68325,5.06014 0.81764,6.05141 0.13439,0.99127 0.22042,1.82623 0.19119,1.85547 -0.0292,0.0292 -0.17211,-0.17998 -0.31748,-0.46493 -0.14537,-0.28495 -0.33718,-0.54606 -0.42625,-0.58024 -0.11941,-0.0458 -49.47461,28.31037 -51.157,29.39139 -0.26089,0.16764 -0.28403,0.15713 -0.36548,-0.16584 z"
       id="path24865"
       transform="scale(0.26458333)" />
    <path
       style="fill:#6c5141;fill-opacity:1;stroke:none;stroke-width:0.455809;stroke-dasharray:none;stroke-opacity:1"
       d="m 593.76241,583.72041 c -0.38025,-1.25139 -10.05725,-42.83678 -9.98423,-42.90568 0.1751,-0.16523 57.75346,-32.26518 57.85863,-32.25619 0.1275,0.0109 0.0722,-0.25928 1.48809,7.26996 1.9117,10.1658 4.20053,23.34176 6.09357,35.07844 l 0.16502,1.02314 -27.72083,16.00452 c -15.24646,8.80248 -27.74625,16.00451 -27.77731,16.00451 -0.0311,0 -0.0864,-0.0984 -0.12294,-0.2187 z"
       id="path24867"
       transform="scale(0.26458333)" />
    <path
       style="fill:#6c5141;fill-opacity:1;stroke:none;stroke-width:0.455809;stroke-dasharray:none;stroke-opacity:1"
       d="m 577.82317,516.01888 c -2.7088,-11.51386 -4.90128,-20.95741 -4.87217,-20.98567 0.18005,-0.1748 58.37986,-33.70809 58.42494,-33.66301 0.12173,0.12173 2.79668,11.43764 4.60147,19.4657 1.70735,7.59461 5.03132,23.58 4.92524,23.68608 -0.0636,0.0636 -57.85673,32.31698 -58.01794,32.37884 -0.0872,0.0335 -1.91338,-7.50062 -5.06154,-20.88194 z"
       id="path24869"
       transform="scale(0.26458333)" />
    <path
       style="fill:#6c5141;fill-opacity:1;stroke:none;stroke-width:0.455809;stroke-dasharray:none;stroke-opacity:1"
       d="m 569.33766,479.95387 -2.64351,-11.23471 2.51878,-21.52955 c 1.99481,-17.05094 2.56011,-21.57207 2.71747,-21.73394 0.10929,-0.11241 8.80314,-5.1681 19.31966,-11.23486 10.51653,-6.06676 19.77554,-11.41062 20.57557,-11.87525 l 1.45461,-0.84477 0.84207,2.26921 c 5.20585,14.02859 10.53412,31.37543 15.36023,50.00711 0.51604,1.99223 0.89799,3.65749 0.84877,3.70059 -0.0492,0.0431 -13.08049,7.57219 -28.95838,16.73131 -15.8779,9.15912 -28.98655,16.72644 -29.13034,16.81626 -0.25821,0.16129 -0.294,0.0249 -2.90493,-11.0714 z"
       id="path24871"
       transform="scale(0.26458333)" />
    <path
       style="fill:#6c5141;fill-opacity:1;stroke:none;stroke-width:0.455809;stroke-dasharray:none;stroke-opacity:1"
       d="m 572.38165,420.26062 c 0.0384,-0.26088 1.69824,-14.36205 3.68848,-31.33593 1.99025,-16.97388 3.66109,-30.89868 3.71298,-30.94401 0.0519,-0.0453 1.91486,-1.1299 4.13993,-2.41017 l 4.04557,-2.32778 0.26602,0.32954 c 1.88951,2.34073 6.40474,8.92145 8.51452,12.4095 4.71959,7.80276 9.09284,16.86006 13.88041,28.74732 1.13529,2.81886 1.2594,3.20011 1.07486,3.30185 -0.11475,0.0633 -8.89742,5.13002 -19.51705,11.25945 -10.61963,6.12944 -19.43603,11.21196 -19.592,11.29449 -0.27561,0.14585 -0.28161,0.13675 -0.21372,-0.32426 z"
       id="path24873"
       transform="scale(0.26458333)" />
    <path
       style="fill:#6c5141;fill-opacity:1;stroke:none;stroke-width:0.227905;stroke-dasharray:none;stroke-opacity:1"
       d="m 580.22114,353.28028 c 0,-0.0566 0.9278,-7.98132 0.9529,-8.13913 0.0204,-0.12798 1.42793,1.45284 3.56394,4.00259 0.78256,0.93415 0.89953,1.10078 0.80793,1.15095 -0.0589,0.0323 -1.26721,0.72876 -2.68509,1.54778 -1.41788,0.81901 -2.59186,1.48912 -2.60882,1.48912 -0.017,0 -0.0309,-0.0231 -0.0309,-0.0513 z"
       id="path24875"
       transform="scale(0.26458333)" />
    <path
       style="fill:#6c5141;fill-opacity:1;stroke:none;stroke-width:0.455809;stroke-dasharray:none;stroke-opacity:1"
       d="m 371.10908,774.52384 v -7.1235 h 95.91723 95.91724 v 7.1235 7.12349 h -95.91724 -95.91723 z"
       id="path24877"
       transform="scale(0.26458333)" />
    <path
       style="fill:#6c5141;fill-opacity:1;stroke:none;stroke-width:0.455809;stroke-dasharray:none;stroke-opacity:1"
       d="m 371.10908,744.53017 v -19.12095 h 69.17288 69.17289 v 3.62423 3.62423 h 13.12223 13.12222 v -3.62423 -3.62423 h 13.62212 13.62213 v 19.12095 19.12096 h -95.91724 -95.91723 z"
       id="path24879"
       transform="scale(0.26458333)" />
    <path
       style="fill:#6c5141;fill-opacity:1;stroke:none;stroke-width:0.455809;stroke-dasharray:none;stroke-opacity:1"
       d="m 371.10908,701.72672 v -19.80831 h 69.17288 69.17289 v 19.80831 19.80831 h -69.17289 -69.17288 z"
       id="path24881"
       transform="scale(0.26458333)" />
    <path
       style="fill:#6c5141;fill-opacity:1;stroke:none;stroke-width:0.455809;stroke-dasharray:none;stroke-opacity:1"
       d="m 535.6993,701.72672 v -19.80831 h 13.55964 13.55963 v -1.87461 -1.8746 H 549.25894 535.6993 v -21.99535 -21.99536 h 13.62212 13.62213 v 43.67827 43.67827 H 549.32142 535.6993 Z"
       id="path24883"
       transform="scale(0.26458333)" />
    <path
       style="fill:#6c5141;fill-opacity:1;stroke:none;stroke-width:0.455809;stroke-dasharray:none;stroke-opacity:1"
       d="m 371.10908,656.17385 v -21.99536 h 69.17288 69.17289 v 21.99536 21.99535 h -69.17289 -69.17288 z"
       id="path24885"
       transform="scale(0.26458333)" />
    <path
       style="fill:#6c5141;fill-opacity:1;stroke:none;stroke-width:0.455809;stroke-dasharray:none;stroke-opacity:1"
       d="m 371.10908,610.496 v -19.80832 h 95.91723 95.91724 V 610.496 630.30431 H 549.32142 535.6993 v -4.99894 -4.99895 h -13.12222 -13.12223 v 4.99895 4.99894 h -69.17289 -69.17288 z"
       id="path24887"
       transform="scale(0.26458333)" />
    <path
       style="fill:#6c5141;fill-opacity:1;stroke:none;stroke-width:0.455809;stroke-dasharray:none;stroke-opacity:1"
       d="m 371.10908,274.5045 c 0,-20.74516 0.0113,-21.87045 0.21871,-21.87159 0.5802,-0.003 3.80175,-0.40826 5.53008,-0.69535 7.38383,-1.22648 17.87988,-4.22201 28.74392,-8.2034 1.68402,-0.61715 3.15029,-1.14872 3.25838,-1.18127 0.14266,-0.043 4.65524,5.88572 16.46527,21.63234 8.94781,11.93033 16.26875,21.73667 16.26875,21.79185 0,0.0995 -4.10951,0.95914 -10.32626,2.16 -19.55433,3.77722 -37.1743,6.47703 -49.66107,7.60929 -3.47951,0.31551 -8.22151,0.6285 -9.52217,0.6285 h -0.97561 z"
       id="path24899"
       transform="scale(0.26458333)" />
    <path
       style="fill:#6c5141;fill-opacity:1;stroke:none;stroke-width:0.455809;stroke-dasharray:none;stroke-opacity:1"
       d="m 364.60916,296.36848 c -12.65642,-0.43153 -33.04821,-3.09849 -56.7992,-7.42853 -6.01764,-1.09708 -10.32278,-1.92449 -10.59808,-2.03686 -0.18912,-0.0772 2.38384,-3.57092 16.03498,-21.77324 8.94313,-11.92471 16.30277,-21.72421 16.35475,-21.77667 0.052,-0.0525 1.07512,0.2485 2.27365,0.66879 13.72461,4.81277 26.61223,8.03804 34.20363,8.55983 l 1.28098,0.0881 v 21.915 c 0,12.05325 -0.0141,21.90606 -0.0312,21.89514 -0.0172,-0.0109 -1.24094,-0.0611 -2.71947,-0.11151 z"
       id="path24901"
       transform="scale(0.26458333)" />
    <path
       style="fill:#6c5141;fill-opacity:1;stroke:none;stroke-width:0.455809;stroke-dasharray:none;stroke-opacity:1"
       d="m 162.59612,354.2064 c -0.034,-0.15465 -0.37925,-3.00757 -0.76729,-6.33981 l -0.70553,-6.05862 2.73495,-2.68953 c 8.24115,-8.10431 17.65621,-15.3052 26.10161,-19.9632 15.9938,-8.82126 43.35474,-17.64754 78.14585,-25.20881 7.78523,-1.69199 22.33387,-4.538 25.01854,-4.89413 l 0.64674,-0.0858 -0.087,0.57985 c -0.0478,0.31891 -0.0455,0.57984 0.005,0.57984 0.0507,0 2.28431,0.42283 4.96363,0.93962 25.86812,4.98942 49.16015,8.28131 63.20822,8.93329 1.61528,0.075 3.51332,0.16728 4.21785,0.20515 l 1.28098,0.0689 v 27.10724 27.10724 H 265.00888 162.65789 Z"
       id="path24903"
       transform="scale(0.26458333)" />
    <path
       style="fill:#6c5141;fill-opacity:1;stroke:none;stroke-width:0.455809;stroke-dasharray:none;stroke-opacity:1"
       d="m 170.60324,422.44198 c -0.0421,-0.29212 -1.73361,-14.67502 -3.75887,-31.96199 -2.02527,-17.28697 -3.70892,-31.61363 -3.74145,-31.83702 l -0.0592,-0.40617 h 102.15805 102.15805 v 32.36816 32.36816 H 269.0198 170.67977 Z"
       id="path24905"
       transform="scale(0.26458333)" />
    <path
       style="fill:#6c5141;fill-opacity:1;stroke:none;stroke-width:0.455809;stroke-dasharray:none;stroke-opacity:1"
       d="m 176.27525,480.89669 c 0,-6.87678 -0.0467,-11.52331 -0.11714,-11.65379 -0.093,-0.17231 -5.01101,-41.65535 -5.00767,-42.23938 7.1e-4,-0.12484 19.70554,-0.15622 98.10516,-0.15622 h 98.10427 v 32.74308 32.74309 h -95.54231 -95.54231 z"
       id="path24907"
       transform="scale(0.26458333)" />
    <path
       style="fill:#6c5141;fill-opacity:1;stroke:none;stroke-width:0.455809;stroke-dasharray:none;stroke-opacity:1"
       d="m 176.27525,517.57813 v -21.49546 h 95.54231 95.54231 v 21.49546 21.49546 h -95.54231 -95.54231 z"
       id="path24909"
       transform="scale(0.26458333)" />
    <path
       style="fill:#6c5141;fill-opacity:1;stroke:none;stroke-width:0.455809;stroke-dasharray:none;stroke-opacity:1"
       d="M 176.27525,564.88064 V 542.8228 h 95.54231 95.54231 v 22.05784 22.05784 h -95.54231 -95.54231 z"
       id="path24911"
       transform="scale(0.26458333)" />
    <path
       style="fill:#6c5141;fill-opacity:1;stroke:none;stroke-width:0.455809;stroke-dasharray:none;stroke-opacity:1"
       d="m 176.27525,610.496 v -19.80832 h 95.54231 95.54231 v 19.80832 19.80831 h -67.48574 -67.48574 v -4.99894 -4.99895 h -13.18471 -13.18471 v 4.99895 4.99894 h -14.87186 -14.87186 z"
       id="path24913"
       transform="scale(0.26458333)" />
    <path
       style="fill:#6c5141;fill-opacity:1;stroke:none;stroke-width:0.455809;stroke-dasharray:none;stroke-opacity:1"
       d="m 232.38839,656.17385 v -21.99536 h 67.48574 67.48574 v 21.99536 21.99535 h -67.48574 -67.48574 z"
       id="path24915"
       transform="scale(0.26458333)" />
    <path
       style="fill:#6c5141;fill-opacity:1;stroke:none;stroke-width:0.455809;stroke-dasharray:none;stroke-opacity:1"
       d="m 176.27525,656.17385 v -21.99536 h 14.87186 14.87186 v 21.99536 21.99535 h -14.87186 -14.87186 z"
       id="path24917"
       transform="scale(0.26458333)" />
    <path
       style="fill:#6c5141;fill-opacity:1;stroke:none;stroke-width:0.455809;stroke-dasharray:none;stroke-opacity:1"
       d="m 176.27525,701.72672 v -19.80831 h 14.87186 14.87186 v 19.80831 19.80831 h -14.87186 -14.87186 z"
       id="path24919"
       transform="scale(0.26458333)" />
    <path
       style="fill:#6c5141;fill-opacity:1;stroke:none;stroke-width:0.455809;stroke-dasharray:none;stroke-opacity:1"
       d="m 232.38839,701.72672 v -19.80831 h 67.48574 67.48574 v 19.80831 19.80831 h -67.48574 -67.48574 z"
       id="path24921"
       transform="scale(0.26458333)" />
    <path
       style="fill:#6c5141;fill-opacity:1;stroke:none;stroke-width:0.455809;stroke-dasharray:none;stroke-opacity:1"
       d="m 176.27525,744.53017 v -19.12095 h 14.87186 14.87186 v 3.6248 3.62481 l 13.15347,-0.0318 13.15347,-0.0318 0.0332,-3.59299 0.0332,-3.59299 h 67.48382 67.48382 v 19.12095 19.12096 h -95.54231 -95.54231 z"
       id="path24923"
       transform="scale(0.26458333)" />
    <path
       style="fill:#6c5141;fill-opacity:1;stroke:none;stroke-width:0.455809;stroke-dasharray:none;stroke-opacity:1"
       d="m 176.27525,774.58632 v -7.18598 h 95.54231 95.54231 v 7.10354 7.10353 l -2.90563,0.0822 c -1.5981,0.0452 -44.59214,0.0823 -95.54231,0.0824 l -92.63668,2.9e-4 z"
       id="path24925"
       transform="scale(0.26458333)" />
    <path
       style="fill:#6c5141;fill-opacity:1;stroke:none;stroke-width:0.911618;stroke-dasharray:none;stroke-opacity:1"
       d="m 371.29654,564.88064 v -21.87038 h 95.85475 95.85474 v 21.87038 21.87037 h -95.85474 -95.85475 z"
       id="path24929"
       transform="scale(0.26458333)" />
    <path
       style="fill:#6c5141;fill-opacity:1;stroke:none;stroke-width:0.911618;stroke-dasharray:none;stroke-opacity:1"
       d="m 371.29654,517.51564 v -21.49545 h 95.85475 95.85474 v 21.49545 21.49546 h -95.85474 -95.85475 z"
       id="path24931"
       transform="scale(0.26458333)" />
    <path
       style="fill:#6c5141;fill-opacity:1;stroke:none;stroke-width:0.644612;stroke-dasharray:none;stroke-opacity:1"
       d="m 371.06426,459.52231 v -32.78515 h 98.37804 98.37803 l -0.0987,0.66277 c -0.0543,0.36453 -1.23521,10.35992 -2.62428,22.21199 -1.89294,16.15156 -2.47152,21.56722 -2.30985,21.62111 0.16655,0.0555 0.21571,2.46486 0.21571,10.57316 v 10.50127 h -95.96947 -95.96947 z"
       id="path24935"
       transform="scale(0.26458333)" />
    <path
       style="fill:#6c5141;fill-opacity:1;stroke:none;stroke-width:0.644612;stroke-dasharray:none;stroke-opacity:1"
       d="m 371.06426,390.68233 v -32.3433 h 102.33209 c 97.33939,0 102.33233,0.0151 102.3371,0.30929 0.003,0.17012 -1.68503,14.7246 -3.75066,32.3433 l -3.75566,32.03401 H 469.6457 371.06426 Z"
       id="path24937"
       transform="scale(0.26458333)" />
    <path
       style="fill:#6c5141;fill-opacity:1;stroke:none;stroke-width:0.644612;stroke-dasharray:none;stroke-opacity:1"
       d="m 371.06426,327.34504 v -27.10571 l 2.60691,-0.12191 c 12.38565,-0.5792 30.80202,-3.09561 53.24273,-7.27506 4.34114,-0.80852 13.30365,-2.57544 16.67357,-3.28713 0.72637,-0.1534 0.84165,-0.23326 0.76421,-0.52941 -0.10902,-0.41686 -0.66292,-0.48695 6.59877,0.835 12.9593,2.35918 28.56694,5.75542 40.65005,8.8455 26.56508,6.79363 46.30732,13.8825 59.05312,21.20428 8.01584,4.60466 17.86388,12.28568 24.8325,19.36822 l 2.32043,2.35834 -0.76641,6.36262 c -0.42153,3.49944 -0.76981,6.3825 -0.77395,6.4068 -0.004,0.0243 -46.17628,0.0442 -102.60474,0.0442 H 371.06426 Z"
       id="path24939"
       transform="scale(0.26458333)" />
    <path
       style="fill:#6c5141;fill-opacity:1;stroke:none;stroke-width:0.322306;stroke-dasharray:none;stroke-opacity:1"
       d="m 156.20331,351.59086 c -1.32865,-0.76537 -2.40804,-1.42915 -2.39863,-1.47508 0.0211,-0.10316 1.34783,-1.69432 2.82538,-3.38859 0.74656,-0.85606 1.11933,-1.22399 1.13888,-1.1241 0.0478,0.24415 0.88266,7.34395 0.86572,7.36237 -0.009,0.009 -1.10269,-0.60922 -2.43135,-1.3746 z"
       id="path24941"
       transform="scale(0.26458333)" />
    <path
       style="fill:#6c5141;fill-opacity:1;stroke:none;stroke-width:0.322306;stroke-dasharray:none;stroke-opacity:1"
       d="m 146.87128,410.2915 c -10.88666,-6.28634 -19.80735,-11.46997 -19.82376,-11.51918 -0.0534,-0.16023 2.11854,-5.57774 4.0051,-9.98994 2.07332,-4.84901 3.57967,-8.10664 5.84336,-12.63686 2.82995,-5.66343 5.20129,-9.76346 8.61215,-14.89029 1.88667,-2.83584 5.67575,-8.07626 5.84455,-8.0832 0.0843,-0.003 7.59046,4.32036 7.74037,4.45873 0.0804,0.0742 1.26799,9.91557 3.86672,32.04239 2.06289,17.56442 3.74052,31.96068 3.72807,31.99168 -0.0125,0.031 -8.9299,-5.08699 -19.81656,-11.37333 z"
       id="path24943"
       transform="scale(0.26458333)" />
    <path
       style="fill:#6c5141;fill-opacity:1;stroke:none;stroke-width:0.455809;stroke-dasharray:none;stroke-opacity:1"
       d="m 137.82072,475.09893 c -16.02919,-9.25142 -29.14673,-16.89706 -29.15009,-16.9903 -0.0124,-0.34452 3.09861,-12.08428 4.82335,-18.20159 3.6201,-12.83971 7.58573,-25.15079 11.80519,-36.6485 0.15765,-0.4296 0.32919,-0.78109 0.38119,-0.78109 0.052,0 9.4185,5.38024 20.81443,11.95609 11.39593,6.57585 20.7292,11.96065 20.7406,11.96622 0.0114,0.006 1.16125,9.72621 2.55523,21.60142 l 2.53451,21.59129 -2.60266,11.08931 c -1.43147,6.09912 -2.63756,11.12274 -2.68021,11.16361 -0.0427,0.0409 -13.19234,-7.49503 -29.22154,-16.74646 z"
       id="path24945"
       transform="scale(0.26458333)" />
    <path
       style="fill:#6c5141;fill-opacity:1;stroke:none;stroke-width:0.455809;stroke-dasharray:none;stroke-opacity:1"
       d="m 136.47116,527.62612 c -10.654,-6.15399 -23.65102,-13.66073 -28.88228,-16.68166 l -9.511373,-5.49259 0.367041,-1.84145 c 1.994712,-10.00749 4.483962,-21.55981 6.603872,-30.64786 2.08515,-8.939 2.56164,-10.81305 2.73902,-10.77269 0.17542,0.0399 57.81444,33.29583 58.15477,33.55349 0.18023,0.13645 -0.30633,2.30634 -4.79802,21.39736 -5.42783,23.06992 -5.0945,21.68476 -5.21681,21.67869 -0.0469,-0.002 -8.80222,-5.03931 -19.45622,-11.19329 z"
       id="path24947"
       transform="scale(0.26458333)" />
    <path
       style="fill:#6c5141;fill-opacity:1;stroke:none;stroke-width:0.455809;stroke-dasharray:none;stroke-opacity:1"
       d="m 117.41269,569.12818 c -15.15617,-8.75793 -27.606337,-15.9421 -27.667033,-15.96483 -0.11294,-0.0423 1.158673,-7.97953 2.93804,-18.33886 1.534688,-8.93484 4.518113,-25.19619 4.646166,-25.32425 0.09866,-0.0987 57.637317,33.1919 57.675347,33.36964 0.0291,0.13607 -9.50889,40.98628 -9.8007,41.97529 -0.0355,0.12028 -0.10291,0.21596 -0.14983,0.21261 -0.0469,-0.003 -12.48582,-7.17168 -27.64199,-15.9296 z"
       id="path24949"
       transform="scale(0.26458333)" />
    <path
       style="fill:#6c5141;fill-opacity:1;stroke:none;stroke-width:0.455809;stroke-dasharray:none;stroke-opacity:1"
       d="m 109.10195,613.30545 c -14.159512,-8.17641 -25.793038,-14.93942 -25.852285,-15.02892 -0.170416,-0.25744 2.597753,-20.39134 4.668852,-33.95827 0.487926,-3.1962 0.920603,-6.08005 0.961505,-6.40855 0.0409,-0.3285 0.116105,-0.62307 0.167116,-0.6546 0.05101,-0.0315 12.373192,7.03329 27.382622,15.69958 15.00943,8.6663 27.40635,15.82192 27.5487,15.90138 0.2546,0.1421 0.18871,0.4422 -4.02418,18.32813 -2.35565,10.00101 -4.43071,18.81633 -4.61122,19.58961 -0.18052,0.77327 -0.36609,1.40412 -0.41239,1.40189 -0.0463,-0.002 -11.66922,-6.69384 -25.82872,-14.87025 z"
       id="path24951"
       transform="scale(0.26458333)" />
    <path
       style="fill:#6c5141;fill-opacity:1;stroke:none;stroke-width:0.455809;stroke-dasharray:none;stroke-opacity:1"
       d="m 101.47856,656.72668 c -12.922273,-7.46132 -23.536535,-13.60676 -23.587253,-13.65653 -0.09277,-0.091 0.799345,-8.37667 2.08766,-19.38944 0.824377,-7.04694 2.572659,-21.16616 2.627881,-21.22291 0.04019,-0.0413 51.152392,29.42813 51.352892,29.60821 0.1105,0.0992 -8.78832,38.2315 -8.92122,38.22828 -0.0357,-8.7e-4 -10.63769,-6.10629 -23.55996,-13.56761 z"
       id="path24953"
       transform="scale(0.26458333)" />
    <path
       style="fill:#6c5141;fill-opacity:1;stroke:none;stroke-width:0.455809;stroke-dasharray:none;stroke-opacity:1"
       d="m 93.2303,710.0788 c -11.616296,-1.82272 -21.136613,-3.32953 -21.156261,-3.34848 -0.08114,-0.0782 1.185319,-16.22429 1.980493,-25.24932 1.391456,-15.7927 3.21613,-34.18028 3.391847,-34.18028 0.05493,0 9.561908,5.46414 21.126613,12.14252 11.564708,6.67839 22.053078,12.73221 23.307508,13.45293 1.25442,0.72072 2.27915,1.34436 2.27718,1.38587 -0.002,0.0415 -2.06927,8.84861 -4.59401,19.57134 -4.55547,19.34744 -4.59279,19.49605 -4.90163,19.51767 -0.17116,0.012 -9.81544,-1.46953 -21.43174,-3.29225 z"
       id="path24955"
       transform="scale(0.26458333)" />
    <path
       style="fill:#6c5141;fill-opacity:1;stroke:none;stroke-width:0.455809;stroke-dasharray:none;stroke-opacity:1"
       d="m 89.793526,728.80884 c -7.938948,-1.34353 -14.442792,-2.44718 -14.452988,-2.45255 -0.02285,-0.012 2.488181,-14.74321 2.521228,-14.79097 0.01909,-0.0276 28.808594,4.73071 28.888434,4.77464 0.0125,0.007 -0.45145,3.32725 -1.03103,7.37858 -0.57958,4.05133 -1.05379,7.41069 -1.05379,7.46525 0,0.0545 -0.0984,0.0921 -0.2187,0.0835 -0.12029,-0.009 -6.714207,-1.11493 -14.653154,-2.45846 z"
       id="path24957"
       transform="scale(0.26458333)" />
    <path
       style="fill:#a67356;fill-opacity:1;stroke:none;stroke-width:1.03165;stroke-dasharray:none;stroke-opacity:1"
       d="m 209.73969,676.45646 v -52.32885 h 9.33434 9.33433 v 52.32885 52.32885 h -9.33433 -9.33434 z"
       id="path25685"
       transform="scale(0.26458333)" />
    <path
       style="fill:#a67356;fill-opacity:1;stroke:none;stroke-width:0.515827;stroke-dasharray:none;stroke-opacity:1"
       d="m 365.52409,248.74771 c -1.8606,-0.19515 -5.11234,-0.70081 -7.21289,-1.12162 -4.59488,-0.92053 -12.15399,-2.92684 -17.46653,-4.63591 l -1.98001,-0.63698 14.24901,-0.007 14.249,-0.007 v 3.25287 3.25288 l -0.67179,-0.0226 c -0.36948,-0.0124 -0.89454,-0.046 -1.16679,-0.0745 z"
       id="path26827"
       transform="scale(0.26458333)" />
    <path
       style="fill:#a67356;fill-opacity:1;stroke:none;stroke-width:0.515827;stroke-dasharray:none;stroke-opacity:1"
       d="m 371.18126,245.59202 v -3.25287 l 13.40043,0.0106 13.40043,0.0106 -1.20215,0.42018 c -4.52544,1.58175 -13.70906,4.09265 -18.29883,5.0031 -2.1405,0.4246 -6.39553,1.06118 -7.09314,1.06118 -0.17537,0 -0.20674,-0.49354 -0.20674,-3.25288 z"
       id="path26829"
       transform="scale(0.26458333)" />
    <path
       style="fill:#a67356;fill-opacity:1;stroke:none;stroke-width:0.72949;stroke-dasharray:none;stroke-opacity:1"
       d="m 513.32892,676.53812 v -52.40295 h 9.30053 9.30052 v 52.40295 52.40295 h -9.30052 -9.30053 z"
       id="path26831"
       transform="scale(0.26458333)" />
  </g>
</svg>
