<?xml version="1.0" encoding="UTF-8" standalone="no"?>
<!-- Created with Inkscape (http://www.inkscape.org/) -->

<svg
   width="210mm"
   height="297mm"
   viewBox="0 0 210 297"
   version="1.1"
   id="svg4315"
   inkscape:version="1.2.2 (732a01da63, 2022-12-09)"
   sodipodi:docname="lingot.svg"
   xmlns:inkscape="http://www.inkscape.org/namespaces/inkscape"
   xmlns:sodipodi="http://sodipodi.sourceforge.net/DTD/sodipodi-0.dtd"
   xmlns="http://www.w3.org/2000/svg"
   xmlns:svg="http://www.w3.org/2000/svg">
  <sodipodi:namedview
     id="namedview4317"
     pagecolor="#ffffff"
     bordercolor="#666666"
     borderopacity="1.0"
     inkscape:showpageshadow="2"
     inkscape:pageopacity="0.0"
     inkscape:pagecheckerboard="0"
     inkscape:deskcolor="#d1d1d1"
     inkscape:document-units="mm"
     showgrid="false"
     inkscape:zoom="0.6587698"
     inkscape:cx="135.1003"
     inkscape:cy="574.55578"
     inkscape:window-width="1920"
     inkscape:window-height="991"
     inkscape:window-x="-9"
     inkscape:window-y="-9"
     inkscape:window-maximized="1"
     inkscape:current-layer="layer1" />
  <defs
     id="defs4312" />
  <g
     inkscape:label="Calque 1"
     inkscape:groupmode="layer"
     id="layer1">
    <g
       id="g16653"
       transform="matrix(0,0.77502644,-0.91449018,0,233.05325,78.719418)">
      <rect
         style="fill:#debd00;fill-opacity:1;stroke:#000000;stroke-width:1.05903;stroke-dasharray:none;stroke-opacity:1"
         id="rect4682"
         width="128.94098"
         height="188.94096"
         x="21.529514"
         y="46.229515" />
      <rect
         style="fill:none;fill-opacity:1;stroke:#000000;stroke-width:1.06702;stroke-dasharray:none;stroke-opacity:1"
         id="rect4682-3"
         width="148.93298"
         height="218.93298"
         x="11.533507"
         y="30.533508" />
      <path
         style="fill:none;stroke:#000000;stroke-width:1.065;stroke-linecap:butt;stroke-linejoin:miter;stroke-dasharray:none;stroke-opacity:1"
         d="M 150.03488,46.238371 160.20349,30.313952 Z"
         id="path6616" />
      <path
         style="fill:none;stroke:#000000;stroke-width:1.065;stroke-linecap:butt;stroke-linejoin:miter;stroke-dasharray:none;stroke-opacity:1"
         d="m 11.319767,30.313952 9.784884,15.348839 z"
         id="path6618" />
      <path
         style="fill:none;stroke:#000000;stroke-width:1.065;stroke-linecap:butt;stroke-linejoin:miter;stroke-dasharray:none;stroke-opacity:1"
         d="m 21.296511,234.83721 -9.976744,14.38953 z"
         id="path6620" />
      <path
         style="fill:none;stroke:#000000;stroke-width:1.065;stroke-linecap:butt;stroke-linejoin:miter;stroke-dasharray:none;stroke-opacity:1"
         d="m 150.22674,234.83721 9.97675,14.96511 z"
         id="path6622" />
      <path
         style="fill:#f5cd02;fill-opacity:1;stroke:none;stroke-width:2.91884;stroke-dasharray:none;stroke-opacity:1"
         d="M 65.170845,145.17777 48.038084,118.19813 186.08826,118.01498 c 75.92759,-0.10073 200.17063,-0.10073 276.09562,0 l 138.04545,0.18315 -17.12803,26.97444 -17.12803,26.97443 -241.83483,0.005 -241.834833,0.005 z"
         id="path11306"
         transform="scale(0.26458333)" />
      <path
         style="fill:#debd00;fill-opacity:1;stroke:none;stroke-width:0.72971;stroke-dasharray:none;stroke-opacity:1"
         d="m 570.86797,213.32453 v -40.56578 l 16.60405,-26.01131 c 9.13223,-14.30622 16.67823,-26.08881 16.76891,-26.18353 0.099,-0.10339 0.16486,26.50583 0.16486,66.57709 v 66.74931 h -16.76891 -16.76891 z"
         id="path11308"
         transform="scale(0.26458333)" />
      <path
         style="fill:#debd00;fill-opacity:1;stroke:none;stroke-width:0.72971;stroke-dasharray:none;stroke-opacity:1"
         d="m 570.87073,213.41833 0.003,-40.47198 5.99474,-9.38153 5.99475,-9.38152 h 10.65077 10.65078 l 0.12055,23.52179 c 0.0663,12.93699 0.12058,35.37106 0.12062,49.85351 l 8e-5,26.33171 H 587.63711 570.8682 Z"
         id="path11310"
         transform="scale(0.26458333)" />
      <path
         style="fill:#debd00;fill-opacity:1;stroke:none;stroke-width:0.72971;stroke-dasharray:none;stroke-opacity:1"
         d="M 587.59156,913.49237 570.86797,888.3897 v -55.29218 -55.29217 h 16.76891 16.76891 v 80.40011 c 0,44.22006 -0.0204,80.39774 -0.0453,80.39484 -0.0249,-0.003 -7.57094,-11.30146 -16.76891,-25.10793 z"
         id="path12038"
         transform="scale(0.26458333)" />
      <path
         style="fill:#debd00;fill-opacity:1;stroke:none;stroke-width:4.12786;stroke-dasharray:none;stroke-opacity:1"
         d="M 571.20658,515.82928 V 254.83812 h 16.40809 16.40809 v 260.99116 260.99116 h -16.40809 -16.40809 z"
         id="path12040"
         transform="scale(0.26458333)" />
      <path
         style="fill:#debd00;fill-opacity:1;stroke:none;stroke-width:4.12786;stroke-dasharray:none;stroke-opacity:1"
         d="M 571.20658,515.82928 V 254.83812 h 16.40809 16.40809 v 260.99116 260.99116 h -16.40809 -16.40809 z"
         id="path12042"
         transform="scale(0.26458333)" />
      <path
         style="fill:#debd00;fill-opacity:1;stroke:none;stroke-width:4.12786;stroke-dasharray:none;stroke-opacity:1"
         d="M 571.20658,515.82928 V 254.83812 h 16.40809 16.40809 v 260.99116 260.99116 h -16.40809 -16.40809 z"
         id="path12044"
         transform="scale(0.26458333)" />
      <path
         style="fill:#f5cd02;fill-opacity:1;stroke:none;stroke-width:4.12786;stroke-dasharray:none;stroke-opacity:1"
         d="m 571.20658,213.68257 c 0,-39.52716 0.0339,-40.18579 2.25426,-43.84036 2.42287,-3.98785 29.627,-46.49826 30.21084,-47.20884 0.19309,-0.23501 0.35108,29.18418 0.35108,65.37598 v 65.80327 h -16.40809 -16.40809 z"
         id="path12046"
         transform="scale(0.26458333)" />
      <path
         style="fill:#f5cd02;fill-opacity:1;stroke:none;stroke-width:4.12786;stroke-dasharray:none;stroke-opacity:1"
         d="M 571.20658,515.82928 V 254.83812 h 16.40809 16.40809 v 260.99116 260.99116 h -16.40809 -16.40809 z"
         id="path12048"
         transform="scale(0.26458333)" />
      <path
         style="fill:#f5cd02;fill-opacity:1;stroke:none;stroke-width:4.12786;stroke-dasharray:none;stroke-opacity:1"
         d="M 571.20658,550.18372 V 323.547 h 16.40809 16.40809 v 226.63672 226.63672 h -16.40809 -16.40809 z"
         id="path12050"
         transform="scale(0.26458333)" />
      <path
         style="fill:#debd00;fill-opacity:1;stroke:none;stroke-width:4.12786;stroke-dasharray:none;stroke-opacity:1"
         d="m 587.26654,911.67799 -16.05996,-24.09581 v -54.86812 -54.86811 h 16.40809 16.40809 v 78.96392 c 0,43.43016 -0.15666,78.96393 -0.34813,78.96393 -0.19147,0 -7.57511,-10.84311 -16.40809,-24.09581 z"
         id="path12052"
         transform="scale(0.26458333)" />
      <path
         style="fill:#debd00;fill-opacity:1;stroke:none;stroke-width:4.12786;stroke-dasharray:none;stroke-opacity:1"
         d="m 587.24622,911.74466 -16.03964,-24.02913 v -54.93479 -54.93479 h 16.40809 16.40809 v 78.96392 c 0,43.43016 -0.16581,78.96393 -0.36846,78.96393 -0.20264,0 -7.58628,-10.81311 -16.40808,-24.02914 z"
         id="path12054"
         transform="scale(0.26458333)" />
      <path
         style="fill:#debd00;fill-opacity:1;stroke:none;stroke-width:4.12786;stroke-dasharray:none;stroke-opacity:1"
         d="m 587.2286,911.78307 -16.02202,-23.99074 v -54.97319 -54.97319 h 16.40809 16.40809 v 78.96392 c 0,43.43016 -0.17373,78.96393 -0.38607,78.96393 -0.21234,0 -7.59598,-10.79583 -16.40809,-23.99073 z"
         id="path12056"
         transform="scale(0.26458333)" />
      <path
         style="fill:#f5cd02;fill-opacity:1;stroke:none;stroke-width:4.12786;stroke-dasharray:none;stroke-opacity:1"
         d="m 587.22738,911.84562 -16.0208,-23.92819 v -55.03574 -55.03574 h 16.40809 16.40809 v 78.96392 c 0,43.43016 -0.17428,78.96393 -0.38729,78.96393 -0.21302,0 -7.59665,-10.76769 -16.40809,-23.92818 z"
         id="path12058"
         transform="scale(0.26458333)" />
      <path
         style="fill:#f5cd02;fill-opacity:1;stroke:none;stroke-width:4.12786;stroke-dasharray:none;stroke-opacity:1"
         d="m 48.27125,939.10669 c 0.03987,-0.42302 7.322273,-11.15237 16.183117,-23.843 l 16.110626,-23.07388 243.526157,-0.23343 243.52616,-0.23343 15.38258,23.16561 c 8.46043,12.74108 15.53641,23.57548 15.72442,24.07643 0.19867,0.52936 -115.01581,0.91083 -275.09186,0.91083 -151.48853,0 -275.401069,-0.34611 -275.3612,-0.76913 z"
         id="path12064"
         transform="scale(0.26458333)" />
      <path
         style="fill:#f5cd02;fill-opacity:1;stroke:none;stroke-width:4.12786;stroke-dasharray:none;stroke-opacity:1"
         d="M 46.147749,528.58096 V 125.14832 l 2.39757,3.57095 c 1.318664,1.96402 8.082009,12.56975 15.029658,23.5683 6.947648,10.99855 13.252381,20.50971 14.010518,21.13592 1.149394,0.94938 1.378431,60.16218 1.378431,356.36387 v 355.2253 l -15.927269,23.01965 c -8.759998,12.66081 -16.143638,23.23603 -16.408089,23.50048 -0.26445,0.26446 -0.480819,-181.06387 -0.480819,-402.95183 z"
         id="path12066"
         transform="scale(0.26458333)" />
    </g>
  </g>
</svg>
