<?xml version="1.0" encoding="UTF-8" standalone="no"?>
<!-- Created with Inkscape (http://www.inkscape.org/) -->

<svg
   width="210mm"
   height="297mm"
   viewBox="0 0 210 297"
   version="1.1"
   id="svg29096"
   inkscape:version="1.2.2 (732a01da63, 2022-12-09)"
   sodipodi:docname="portoloin.svg"
   xmlns:inkscape="http://www.inkscape.org/namespaces/inkscape"
   xmlns:sodipodi="http://sodipodi.sourceforge.net/DTD/sodipodi-0.dtd"
   xmlns="http://www.w3.org/2000/svg"
   xmlns:svg="http://www.w3.org/2000/svg">
  <sodipodi:namedview
     id="namedview29098"
     pagecolor="#ffffff"
     bordercolor="#666666"
     borderopacity="1.0"
     inkscape:showpageshadow="2"
     inkscape:pageopacity="0.0"
     inkscape:pagecheckerboard="0"
     inkscape:deskcolor="#d1d1d1"
     inkscape:document-units="mm"
     showgrid="false"
     inkscape:zoom="1.9502576"
     inkscape:cx="261.76029"
     inkscape:cy="385.59008"
     inkscape:window-width="1920"
     inkscape:window-height="991"
     inkscape:window-x="-9"
     inkscape:window-y="-9"
     inkscape:window-maximized="1"
     inkscape:current-layer="layer1" />
  <defs
     id="defs29093" />
  <g
     inkscape:label="Calque 1"
     inkscape:groupmode="layer"
     id="layer1">
    <path
       style="fill:none;stroke:#000000;stroke-width:1.265;stroke-linecap:butt;stroke-linejoin:miter;stroke-dasharray:none;stroke-opacity:1"
       d="m 22.927325,67.438952 c -1.082389,1.756168 1.375352,3.890331 2.014535,5.851744 1.078078,3.308216 2.409842,6.560453 3.069768,9.976744 0.876364,4.536743 0.959136,9.197334 1.151162,13.813954 0.217941,5.239656 0.186935,10.491706 0,15.732556 -0.383965,10.76471 -9.642624,24.34925 -2.302325,32.23256 5.578395,5.99106 18.277907,5.25072 24.558138,0 2.492641,-2.08402 -1.189167,-8.15989 1.726744,-9.59302 3.198541,-1.57205 6.152163,3.67461 9.488279,4.92853 5.838788,2.19458 11.993072,3.62774 18.176541,4.4477 5.296195,0.7023 10.691059,0.7136 16.023173,0.37972 4.97225,-0.31134 10.55776,0.42777 14.7809,-2.21521 1.47744,-0.92463 2.22734,-2.72938 2.95738,-4.31204 0.81436,-1.76545 1.74781,-3.70124 1.51759,-5.63178 -0.29916,-2.50866 -1.85799,-4.8561 -3.6377,-6.64928 -3.40911,-3.43489 -8.00816,-5.81635 -12.684068,-7.06392 -4.634807,-1.2366 -9.599229,0.0603 -14.389535,-0.19186 -4.87429,-0.25657 -9.908783,0.0681 -14.581396,-1.34303 -5.286813,-1.59659 -11.683108,-3.16528 -14.581396,-7.86628 C 50.40631,100.5142 58.033058,87.458671 55.255813,76.744186 54.279728,72.978493 52.783049,68.977381 49.883721,66.383719 48.555938,65.195919 46.66485,64.671859 44.895349,64.465115 37.55581,63.607581 26.804463,61.148324 22.927325,67.438952 Z"
       id="path29100"
       sodipodi:nodetypes="aaaaaaaaaaaaaaaaaaaaaaa" />
    <circle
       style="fill:#ffffff;fill-opacity:1;stroke:#000000;stroke-width:0.465;stroke-dasharray:none;stroke-opacity:1"
       id="path29154"
       cx="49.595928"
       cy="71.180237"
       r="1.5927399" />
    <circle
       style="fill:#ffffff;fill-opacity:1;stroke:#000000;stroke-width:0.465;stroke-dasharray:none;stroke-opacity:1"
       id="path29154-5"
       cx="52.186047"
       cy="77.031975"
       r="1.5927399" />
    <circle
       style="fill:#ffffff;fill-opacity:1;stroke:#000000;stroke-width:0.465;stroke-dasharray:none;stroke-opacity:1"
       id="path29154-6"
       cx="52.857555"
       cy="83.843025"
       r="1.5927399" />
    <circle
       style="fill:#ffffff;fill-opacity:1;stroke:#000000;stroke-width:0.465;stroke-dasharray:none;stroke-opacity:1"
       id="path29154-9"
       cx="52.473839"
       cy="90.558144"
       r="1.5927399" />
    <circle
       style="fill:#ffffff;fill-opacity:1;stroke:#000000;stroke-width:0.465;stroke-dasharray:none;stroke-opacity:1"
       id="path29154-2"
       cx="51.658432"
       cy="96.69767"
       r="1.5927399" />
    <circle
       style="fill:#ffffff;fill-opacity:1;stroke:#000000;stroke-width:0.465;stroke-dasharray:none;stroke-opacity:1"
       id="path29154-93"
       cx="51.466572"
       cy="101.92588"
       r="1.5927399" />
    <path
       style="fill:none;stroke:#000000;stroke-width:0.865;stroke-linecap:butt;stroke-linejoin:miter;stroke-dasharray:none;stroke-opacity:1"
       d="m 49.979652,102.45349 c 0,0 5.691514,0.26556 7.770348,-1.34303 1.165794,-0.90209 2.145878,-2.590883 1.822672,-4.029066 -0.483817,-2.152859 -5.046563,-4.28394 -5.046563,-4.28394"
       id="path29962"
       sodipodi:nodetypes="caac" />
    <path
       style="fill:none;stroke:#000000;stroke-width:0.865;stroke-linecap:butt;stroke-linejoin:miter;stroke-dasharray:none;stroke-opacity:1"
       d="m 50.221101,97.350294 c 0,0 5.345153,-0.501506 7.242732,-2.158436 1.110338,-0.969527 2.113778,-2.584043 1.822672,-4.029066 -0.361942,-1.796649 -4.029069,-3.741277 -4.029069,-3.741277"
       id="path29962-8"
       sodipodi:nodetypes="caac" />
    <path
       style="fill:none;stroke:#000000;stroke-width:0.865;stroke-linecap:butt;stroke-linejoin:miter;stroke-dasharray:none;stroke-opacity:1"
       d="m 50.940578,91.0189 c 0,0 4.817951,-0.548342 6.523255,-2.062507 1.102254,-0.978708 2.058111,-2.573936 1.822672,-4.029066 -0.273592,-1.690938 -3.486406,-3.775193 -3.486406,-3.775193"
       id="path29962-1"
       sodipodi:nodetypes="caac" />
    <path
       style="fill:none;stroke:#000000;stroke-width:0.865;stroke-linecap:butt;stroke-linejoin:miter;stroke-dasharray:none;stroke-opacity:1"
       d="m 51.420229,84.543608 c 0,0 3.485915,-1.04989 4.700581,-2.302331 1.026234,-1.058148 2.042998,-2.571571 1.822672,-4.029066 -0.267071,-1.76672 -3.554239,-4.012609 -3.554239,-4.012609"
       id="path29962-5"
       sodipodi:nodetypes="caac" />
    <path
       style="fill:none;stroke:#000000;stroke-width:0.865;stroke-linecap:butt;stroke-linejoin:miter;stroke-dasharray:none;stroke-opacity:1"
       d="m 50.748718,77.780527 c 0,0 3.343329,-0.967536 4.50872,-2.158436 1.030969,-1.053536 2.24566,-2.617006 1.822672,-4.029066 -0.738248,-2.46449 -6.523255,-4.124998 -6.523255,-4.124998"
       id="path29962-2"
       sodipodi:nodetypes="caac" />
    <path
       style="fill:none;stroke:#000000;stroke-width:1.165;stroke-linecap:butt;stroke-linejoin:miter;stroke-dasharray:none;stroke-opacity:1"
       d="m 24.414244,71.947674 c 0,0 -2.809353,-1.55747 -4.364826,-1.726745 -0.998197,-0.108629 -2.034685,0.124421 -2.973837,0.479653 -0.672114,0.254226 -1.104141,1.160032 -1.822674,1.151162 -0.806995,-0.01 -1.654784,-0.620584 -2.014535,-1.343025 -0.485468,-0.974902 -0.264834,-2.272919 0.19186,-3.261627 0.445736,-0.964985 1.331139,-1.77434 2.302326,-2.206395 1.201061,-0.53432 2.638644,-0.516543 3.933139,-0.28779 1.38121,0.244077 3.83721,1.726742 3.83721,1.726742"
       id="path30805"
       sodipodi:nodetypes="caaaaaaac" />
    <path
       style="fill:#ffffff;fill-opacity:1;stroke:none;stroke-width:2.25773;stroke-dasharray:none;stroke-opacity:1"
       d="m 138.69962,561.18536 c -21.8599,-1.96762 -37.69092,-12.17165 -42.769553,-27.56751 -1.971532,-5.9767 -2.526824,-10.71371 -2.175407,-18.5577 0.481183,-10.74051 2.075208,-17.74942 11.2704,-49.5558 4.47393,-15.47542 6.7511,-26.07144 7.47711,-34.79203 1.75391,-21.06765 0.80642,-75.0395 -1.76131,-100.32848 -1.57421,-15.50406 -3.51827,-23.6968 -10.50433,-44.2678 -3.414199,-10.05337 -4.76055,-13.29162 -7.354865,-17.68997 -5.467079,-9.26877 -5.583716,-10.0688 -2.112576,-14.4904 5.948191,-7.5769 15.535461,-11.35023 30.496941,-12.00289 8.49237,-0.37045 16.63863,0.27322 37.01658,2.92485 20.82546,2.70986 23.84682,3.70814 30.20648,9.98049 5.82411,5.74417 10.73054,14.32755 14.58194,25.50985 1.57233,4.56514 1.78612,5.64803 1.24408,6.30116 -0.57875,0.69734 -0.8131,0.63675 -2.02388,-0.52325 -3.59159,-3.44096 -9.75594,-2.325 -11.60521,2.10093 -0.96628,2.31262 -0.89599,3.59297 0.33705,6.1401 2.33742,4.82847 9.50496,5.16006 12.30416,0.56922 0.5505,-0.90285 1.00178,-2.13603 1.00283,-2.74038 0.002,-0.90985 1.34648,-2.09324 1.82426,-1.60519 0.605,0.61802 1.91179,9.52477 2.14254,14.60297 l 0.28439,6.25867 -1.26932,0.57834 c -1.07987,0.49202 -1.56072,0.38059 -3.2217,-0.74658 -3.76894,-2.55767 -9.22379,-1.28871 -10.81329,2.51549 -2.13564,5.1113 1.01285,10.00009 6.44026,10.00009 3.80443,0 6.38183,-2.10964 7.15257,-5.85449 0.16979,-0.82495 0.6177,-1.60292 0.99536,-1.7288 0.55578,-0.18527 0.6183,0.58923 0.32804,4.06368 -0.56294,6.73846 -2.18302,18.93703 -2.56586,19.31986 -0.1907,0.19072 -0.5968,-0.10008 -0.90244,-0.64621 -3.12579,-5.58548 -11.59233,-4.75603 -13.22179,1.29531 -1.93459,7.18452 6.64867,12.21695 11.89278,6.97283 l 1.62432,-1.62431 -0.30945,1.90692 c -0.1702,1.04881 -0.72379,5.02859 -1.23022,8.84396 -0.50642,3.81538 -1.09886,6.93704 -1.31653,6.93704 -0.21767,0 -0.39577,-0.30293 -0.39577,-0.67319 0,-1.07538 -2.73976,-3.40384 -4.64961,-3.95157 -2.54364,-0.72951 -4.95628,-0.0922 -6.86068,1.81217 -4.1832,4.18319 -1.79186,11.25412 4.02791,11.91009 2.77762,0.31308 5.04502,-0.50898 6.54503,-2.37293 l 1.07889,-1.34066 -0.32407,4.3584 c -0.17824,2.39712 -0.32546,5.45102 -0.32715,6.78644 l -0.003,2.42805 -1.68406,-1.83763 c -1.32298,-1.44362 -2.17834,-1.89334 -3.9893,-2.09746 -4.29051,-0.4836 -7.35519,1.68553 -8.0006,5.66271 -0.39005,2.4036 0.0613,4.02768 1.64089,5.90498 2.62362,3.11798 7.03561,3.32983 10.26662,0.49297 0.99049,-0.86966 1.86588,-1.49281 1.94532,-1.38478 0.0795,0.10804 0.4275,2.27308 0.77345,4.8112 2.25985,16.57985 9.62248,28.9585 22.2028,37.32915 7.93941,5.28271 17.08952,9.06175 34.9717,14.44348 18.10548,5.44894 23.00759,6.11204 51.7021,6.99358 16.96157,0.52109 21.13539,0.486 34.08936,-0.28665 19.64439,-1.17171 25.78389,-0.62412 37.85257,3.37607 7.43653,2.46486 19.95279,8.50505 25.84007,12.4701 17.01886,11.4621 27.22985,25.37565 27.22985,37.10353 0,4.06813 -1.21481,8.10251 -4.95794,16.46536 -3.67669,8.21443 -7.05705,13.72898 -9.60877,15.67527 -4.21714,3.21657 -12.95894,6.22509 -21.58236,7.42765 -9.22751,1.2868 -64.80088,2.42961 -76.94785,1.58236 -27.04641,-1.88649 -55.42842,-7.76432 -81.17125,-16.81031 -6.22861,-2.18872 -9.23908,-4.03486 -16.21684,-9.94481 -11.45499,-9.70202 -13.68778,-10.94129 -19.74098,-10.95691 -5.19408,-0.0134 -7.68301,1.02914 -9.87518,4.13644 -2.27538,3.22527 -2.69748,7.08986 -1.71842,15.73348 1.49994,13.24218 1.13404,15.2062 -3.53261,18.96186 -3.44092,2.76919 -11.96869,7.28755 -17.45401,9.24783 -5.45919,1.95095 -14.64156,3.84492 -21.5152,4.43777 -6.70318,0.57816 -6.71851,0.57816 -13.0752,0.006 z m 52.26917,-286.00493 c 5.72581,-3.07079 4.17612,-11.98721 -2.29437,-13.20109 -4.8254,-0.90525 -9.43327,3.96494 -8.24203,8.71123 0.39678,1.58091 2.7224,4.36592 4.11679,4.93001 1.80976,0.73213 4.58908,0.54157 6.41961,-0.44015 z"
       id="path30861"
       transform="scale(0.26458333)" />
    <path
       style="fill:#713c2c;fill-opacity:1;stroke:none;stroke-width:2.25773;stroke-dasharray:none;stroke-opacity:1"
       d="m 138.69962,561.18536 c -21.8599,-1.96762 -37.69092,-12.17165 -42.769553,-27.56751 -1.941242,-5.88487 -2.522675,-10.7304 -2.196047,-18.30132 0.435442,-10.09309 2.571698,-19.99172 9.07403,-42.04573 6.55335,-22.22705 8.82471,-32.20139 9.69145,-42.55848 1.75534,-20.97547 0.81069,-75.01988 -1.75265,-100.27113 -1.53551,-15.12612 -3.52959,-23.65849 -9.97854,-42.69666 -3.888625,-11.47973 -6.1057,-16.82563 -8.224481,-19.83121 -1.936819,-2.74746 -4.093961,-7.64437 -4.093654,-9.29298 2.37e-4,-1.27547 0.610679,-2.50869 2.318914,-4.68467 5.948191,-7.5769 15.535461,-11.35023 30.496941,-12.00289 8.49237,-0.37045 16.63863,0.27322 37.01658,2.92485 20.82546,2.70986 23.84682,3.70814 30.20648,9.98049 5.82411,5.74417 10.73054,14.32755 14.58194,25.50985 1.57233,4.56514 1.78612,5.64803 1.24408,6.30116 -0.57875,0.69734 -0.8131,0.63675 -2.02388,-0.52325 -5.24351,-5.0236 -13.94828,-0.0439 -11.89619,6.80543 1.76625,5.8952 9.80064,7.14074 12.93219,2.00482 0.5505,-0.90285 1.00178,-2.13603 1.00283,-2.74038 0.002,-0.90985 1.34648,-2.09324 1.82426,-1.60519 0.605,0.61802 1.91179,9.52477 2.14254,14.60297 l 0.28439,6.25867 -1.26932,0.57834 c -1.07987,0.49202 -1.56072,0.38059 -3.2217,-0.74658 -3.75093,-2.54544 -8.89381,-1.38682 -10.69529,2.4095 -1.08404,2.28446 -1.08404,4.09104 0,6.3755 1.13359,2.38887 3.42425,3.7301 6.37462,3.73249 3.37309,0.003 5.60904,-1.62307 6.68861,-4.86343 1.40361,-4.21301 2.15079,-3.63513 1.735,1.34191 -0.56294,6.73846 -2.18302,18.93703 -2.56586,19.31986 -0.1907,0.19072 -0.5968,-0.10008 -0.90244,-0.64621 -3.12579,-5.58548 -11.59233,-4.75603 -13.22179,1.29531 -1.93459,7.18452 6.64867,12.21695 11.89278,6.97283 l 1.62432,-1.62431 -0.30945,1.90692 c -0.1702,1.04881 -0.72379,5.02859 -1.23022,8.84396 -0.50642,3.81538 -1.09886,6.93704 -1.31653,6.93704 -0.21767,0 -0.39577,-0.30293 -0.39577,-0.67319 0,-1.07538 -2.73976,-3.40384 -4.64961,-3.95157 -2.54723,-0.73054 -4.95694,-0.0916 -6.87023,1.82171 -4.50926,4.50927 -1.31399,12.0326 5.11043,12.0326 2.19009,0 4.47924,-1.0867 5.66441,-2.68902 0.81555,-1.10259 0.8411,-0.95301 0.54696,3.20178 -0.16971,2.39712 -0.30995,5.45102 -0.31164,6.78644 l -0.003,2.42805 -1.69826,-1.85312 c -1.41607,-1.5452 -2.11894,-1.88998 -4.23021,-2.07503 -8.11981,-0.71169 -11.00112,9.75284 -3.67449,13.34527 2.55597,1.25326 5.50004,0.7599 7.86701,-1.31833 0.97371,-0.85493 1.83538,-1.46603 1.91482,-1.358 0.0795,0.10804 0.4275,2.27308 0.77345,4.8112 1.96748,14.43485 8.24146,26.52142 17.65527,34.01222 8.34652,6.64153 18.30738,11.2111 37.05442,16.99882 19.92951,6.15278 25.10421,6.88902 54.58472,7.76614 16.74988,0.49835 21.12459,0.459 33.81995,-0.30423 19.44919,-1.16926 25.64903,-0.61303 37.70417,3.38268 7.43653,2.46486 19.95279,8.50505 25.84007,12.4701 17.01886,11.4621 27.22985,25.37565 27.22985,37.10353 0,4.06813 -1.21481,8.10251 -4.95794,16.46536 -3.67669,8.21443 -7.05705,13.72898 -9.60877,15.67527 -4.21714,3.21657 -12.95894,6.22509 -21.58236,7.42765 -9.22751,1.2868 -64.80088,2.42961 -76.94785,1.58236 -27.04641,-1.88649 -55.42842,-7.76432 -81.17125,-16.81031 -6.34326,-2.22901 -9.17606,-3.99599 -16.98597,-10.59509 -10.39875,-8.78658 -14.25286,-10.80727 -19.99736,-10.48447 -9.25815,0.52024 -12.17824,6.11873 -10.55025,20.22722 1.49442,12.951 1.0995,15.04018 -3.55045,18.7824 -3.44092,2.76919 -11.96869,7.28755 -17.45401,9.24783 -5.45919,1.95095 -14.64156,3.84492 -21.5152,4.43777 -6.70318,0.57816 -6.71851,0.57816 -13.0752,0.006 z m 52.26917,-286.00493 c 5.72581,-3.07079 4.17612,-11.98721 -2.29437,-13.20109 -4.8254,-0.90525 -9.43327,3.96494 -8.24203,8.71123 0.39678,1.58091 2.7224,4.36592 4.11679,4.93001 1.80976,0.73213 4.58908,0.54157 6.41961,-0.44015 z"
       id="path34040"
       transform="scale(0.26458333)" />
    <path
       style="fill:#c96b4d;fill-opacity:1;stroke:none;stroke-width:0.282216;stroke-dasharray:none;stroke-opacity:1"
       d="m 187.02657,274.12305 c -0.94455,-0.12488 -1.64498,-0.37219 -2.35502,-0.83151 -1.08941,-0.70474 -1.89339,-1.85355 -2.20554,-3.15153 -0.1511,-0.62831 -0.13396,-1.70529 0.0375,-2.35488 0.67875,-2.57187 3.20736,-4.23326 5.76448,-3.78748 2.18207,0.3804 3.84499,2.05528 4.21719,4.24752 0.29679,1.74803 -0.43434,3.62576 -1.85355,4.76043 -0.51016,0.40788 -1.29156,0.79963 -1.90654,0.95585 -0.492,0.12497 -1.3547,0.20705 -1.6985,0.1616 z"
       id="path34042"
       transform="scale(0.26458333)" />
    <path
       style="fill:#c96b4d;fill-opacity:1;stroke:none;stroke-width:0.282216;stroke-dasharray:none;stroke-opacity:1"
       d="m 192.19962,291.99479 c -0.0248,-0.0607 -0.0441,-0.45639 -0.0428,-0.87941 0.002,-0.59648 0.0343,-0.88133 0.14469,-1.26901 0.51869,-1.82162 1.9303,-3.19878 3.76232,-3.67053 0.71137,-0.18318 1.82902,-0.15531 2.56376,0.0639 1.18323,0.35306 2.14018,1.04841 2.83952,2.06329 l 0.13788,0.20008 -1.16823,0.51578 c -2.20236,0.97235 -4.04558,1.68272 -6.67881,2.57399 -1.3505,0.4571 -1.51805,0.50031 -1.55834,0.40189 z"
       id="path36873"
       transform="scale(0.26458333)" />
    <path
       style="fill:#c96b4d;fill-opacity:1;stroke:none;stroke-width:0.282216;stroke-dasharray:none;stroke-opacity:1"
       d="m 196.57659,296.20387 c -0.51818,-0.0747 -1.20076,-0.28649 -1.63214,-0.50634 -0.44752,-0.22809 -0.99197,-0.6161 -0.92121,-0.65652 0.0295,-0.0169 0.42863,-0.15414 0.88691,-0.30505 1.84381,-0.60717 4.24862,-1.52037 6.14501,-2.33351 0.63012,-0.27018 1.16113,-0.47579 1.18001,-0.45691 0.0556,0.0557 -0.11577,0.74126 -0.28922,1.15676 -0.68961,1.65197 -2.27514,2.85956 -4.07609,3.10448 -0.5641,0.0767 -0.74395,0.0763 -1.29327,-0.003 z"
       id="path36875"
       transform="scale(0.26458333)" />
    <path
       style="fill:#c96b4d;fill-opacity:1;stroke:none;stroke-width:0.282216;stroke-dasharray:none;stroke-opacity:1"
       d="m 194.70724,317.51758 c -0.0213,-0.0554 -0.0243,-0.43755 -0.007,-0.84924 0.026,-0.61086 0.0682,-0.85639 0.22952,-1.33487 0.57008,-1.69133 1.89022,-2.93784 3.60144,-3.40059 0.5726,-0.15484 1.92142,-0.15573 2.49967,-0.002 0.58484,0.15584 1.49834,0.6225 1.96752,1.0051 0.36259,0.29569 0.98251,0.98074 0.97961,1.08254 -0.003,0.10528 -3.31142,1.50408 -5.44961,2.30409 -1.41013,0.52761 -3.61681,1.29533 -3.72321,1.29533 -0.0327,0 -0.0769,-0.0453 -0.0982,-0.10071 z"
       id="path36877"
       transform="scale(0.26458333)" />
    <path
       style="fill:#c96b4d;fill-opacity:1;stroke:none;stroke-width:0.282216;stroke-dasharray:none;stroke-opacity:1"
       d="m 198.59556,321.85231 c -0.61479,-0.15745 -1.13999,-0.39158 -1.67408,-0.74626 -0.66791,-0.44356 -0.66884,-0.43176 0.053,-0.67079 2.02282,-0.66983 4.89637,-1.78511 7.12254,-2.76438 0.39955,-0.17575 0.7364,-0.3096 0.74856,-0.29744 0.0356,0.0356 -0.14335,0.89417 -0.24573,1.17878 -0.54161,1.50573 -1.72055,2.65773 -3.24824,3.17399 -0.53732,0.18159 -0.70684,0.20833 -1.44211,0.2275 -0.66514,0.0173 -0.9302,-0.003 -1.31393,-0.1014 z"
       id="path36879"
       transform="scale(0.26458333)" />
    <path
       style="fill:#c96b4d;fill-opacity:1;stroke:none;stroke-width:0.282216;stroke-dasharray:none;stroke-opacity:1"
       d="m 193.24245,341.80342 c 0.092,-0.8587 0.35201,-1.60079 0.80315,-2.29186 1.74082,-2.66667 5.42866,-3.13493 7.73061,-0.98158 0.64952,0.6076 1.43093,1.80048 1.22757,1.87399 -0.39842,0.14402 -4.13408,0.91789 -6.02276,1.24765 -1.19053,0.20787 -3.55262,0.57736 -3.69672,0.57826 -0.0699,4.3e-4 -0.0783,-0.0857 -0.0419,-0.42646 z"
       id="path36881"
       transform="scale(0.26458333)" />
    <path
       style="fill:#c96b4d;fill-opacity:1;stroke:none;stroke-width:0.282216;stroke-dasharray:none;stroke-opacity:1"
       d="m 197.38259,347.28827 c -0.4637,-0.091 -0.90445,-0.25142 -1.42199,-0.51763 -0.50635,-0.26045 -1.30157,-0.88278 -1.48422,-1.16154 l -0.10504,-0.16031 0.30145,-0.0421 c 1.76895,-0.24677 5.11034,-0.85809 7.24576,-1.32563 0.64671,-0.1416 1.19166,-0.24162 1.21101,-0.22227 0.0545,0.0545 -0.14879,0.54027 -0.41522,0.9923 -0.49392,0.83799 -1.40909,1.66244 -2.28747,2.06072 -0.8742,0.39638 -2.14293,0.55326 -3.04428,0.37642 z"
       id="path36883"
       transform="scale(0.26458333)" />
    <path
       style="fill:#c96b4d;fill-opacity:1;stroke:none;stroke-width:0.282216;stroke-dasharray:none;stroke-opacity:1"
       d="m 190.17553,366.05741 c -0.076,-0.28376 -0.0366,-1.05166 0.084,-1.63615 0.38185,-1.85044 1.84836,-3.38804 3.72126,-3.90164 0.57617,-0.158 1.92123,-0.15984 2.49967,-0.003 1.29554,0.35034 2.48303,1.23817 3.14386,2.35051 0.28697,0.48305 0.55958,1.19823 0.58781,1.54212 l 0.0178,0.21733 -1.21779,0.23952 c -1.3332,0.26221 -3.79283,0.68303 -5.17334,0.8851 -1.05125,0.15388 -3.36882,0.45084 -3.51846,0.45084 -0.0584,0 -0.12358,-0.0649 -0.14484,-0.14421 z"
       id="path36885"
       transform="scale(0.26458333)" />
    <path
       style="fill:#c96b4d;fill-opacity:1;stroke:none;stroke-width:0.282216;stroke-dasharray:none;stroke-opacity:1"
       d="m 194.30607,370.49033 c -0.68127,-0.13366 -1.67834,-0.57813 -2.11535,-0.94295 l -0.21449,-0.17907 0.89011,-0.11475 c 1.31346,-0.16933 3.92063,-0.57914 5.33165,-0.83807 0.68025,-0.12482 1.26627,-0.22696 1.30227,-0.22696 0.096,0 -0.17177,0.35947 -0.61252,0.82227 -0.9615,1.00961 -2.25781,1.5561 -3.65712,1.54174 -0.35252,-0.004 -0.76857,-0.0316 -0.92455,-0.0622 z"
       id="path36887"
       transform="scale(0.26458333)" />
    <path
       style="fill:#c96b4d;fill-opacity:1;stroke:none;stroke-width:0.141108;stroke-dasharray:none;stroke-opacity:1"
       d="m 190.03532,385.61654 -0.61258,-0.0118 -0.0203,-0.1726 c -0.0271,-0.23045 0.0282,-0.87873 0.10712,-1.2568 0.26814,-1.28403 1.06782,-2.46545 2.16381,-3.19671 1.84721,-1.23249 4.24115,-1.14432 5.9928,0.22071 1.16586,0.90853 1.8964,2.31257 1.96205,3.77093 l 0.0183,0.40571 -0.17296,0.0187 c -0.36073,0.039 -2.05059,0.12851 -3.42573,0.18146 -0.87944,0.0339 -4.93598,0.0611 -6.0125,0.0404 z"
       id="path40170"
       transform="scale(0.26458333)" />
    <path
       style="fill:#c96b4d;fill-opacity:1;stroke:none;stroke-width:0.141108;stroke-dasharray:none;stroke-opacity:1"
       d="m 193.76829,390.30181 c -0.52047,-0.0849 -1.00737,-0.23705 -1.47816,-0.46175 -0.33452,-0.15966 -0.8714,-0.51485 -1.11347,-0.73665 l -0.17625,-0.1615 1.31392,-0.002 c 1.79035,-0.003 4.86118,-0.083 5.6521,-0.14801 0.17143,-0.0141 0.23001,-0.009 0.21378,0.0168 -0.0507,0.0821 -0.57575,0.51613 -0.82407,0.6813 -0.54304,0.3612 -1.19346,0.63323 -1.83068,0.76566 -0.42595,0.0885 -1.34891,0.11273 -1.75717,0.0461 z"
       id="path40172"
       transform="scale(0.26458333)" />
  </g>
</svg>
