<?xml version="1.0" encoding="UTF-8" standalone="no"?>
<!-- Created with Inkscape (http://www.inkscape.org/) -->

<svg
   width="210mm"
   height="297mm"
   viewBox="0 0 210 297"
   version="1.1"
   id="svg5"
   inkscape:version="1.2.2 (732a01da63, 2022-12-09)"
   sodipodi:docname="potion_vide.svg"
   xmlns:inkscape="http://www.inkscape.org/namespaces/inkscape"
   xmlns:sodipodi="http://sodipodi.sourceforge.net/DTD/sodipodi-0.dtd"
   xmlns="http://www.w3.org/2000/svg"
   xmlns:svg="http://www.w3.org/2000/svg"
   xmlns:rdf="http://www.w3.org/1999/02/22-rdf-syntax-ns#"
   xmlns:cc="http://creativecommons.org/ns#"
   xmlns:dc="http://purl.org/dc/elements/1.1/">
  <title
     id="title21378">Potion vide</title>
  <sodipodi:namedview
     id="namedview7"
     pagecolor="#ffffff"
     bordercolor="#666666"
     borderopacity="1.0"
     inkscape:showpageshadow="2"
     inkscape:pageopacity="0.0"
     inkscape:pagecheckerboard="0"
     inkscape:deskcolor="#d1d1d1"
     inkscape:document-units="mm"
     showgrid="true"
     inkscape:zoom="11.313709"
     inkscape:cx="285.89211"
     inkscape:cy="461.2104"
     inkscape:window-width="2400"
     inkscape:window-height="1261"
     inkscape:window-x="2391"
     inkscape:window-y="-9"
     inkscape:window-maximized="1"
     inkscape:current-layer="layer1">
    <inkscape:grid
       type="xygrid"
       id="grid686" />
  </sodipodi:namedview>
  <defs
     id="defs2">
    <clipPath
       clipPathUnits="userSpaceOnUse"
       id="clipPath20706">
      <path
         id="path20708"
         style="fill:#ff0000;fill-opacity:1;fill-rule:nonzero;stroke:none;stroke-width:0.264583"
         d="m 86.662411,118.5354 c 0.01656,0.003 0.03322,0.009 0.05116,0.015 -0.0021,-0.002 -0.0045,-0.003 -0.0067,-0.005 -0.0042,-0.003 -0.0088,-0.007 -0.01344,-0.01 z" />
    </clipPath>
    <clipPath
       clipPathUnits="userSpaceOnUse"
       id="clipPath20982">
      <path
         id="path20984"
         style="fill:#ff0000;fill-opacity:1;fill-rule:nonzero;stroke:none;stroke-width:0.264583"
         d="m 90.090625,113.5972 -6.868832,5.3e-4 v 5.55521 h 1.522389 c 0,-0.002 5e-6,-0.005 0,-0.007 5.3e-5,-0.004 5.29e-4,-0.008 0,-0.0124 -2.54e-4,-0.003 -0.0011,-0.005 -5.3e-4,-0.008 2.65e-4,-0.001 0.0011,-0.003 0.0016,-0.005 -5.29e-4,-0.005 -1.77e-4,-0.0106 0.0016,-0.015 5.3e-4,-0.002 7.94e-4,-0.004 0.0016,-0.006 l 5.29e-4,-5.3e-4 c -7.94e-4,-0.004 -0.0013,-0.007 0,-0.0119 7.94e-4,-0.002 0.0011,-0.002 0.0021,-0.003 1.24e-4,-2.6e-4 -1.83e-4,-10e-4 0,-10e-4 -2.54e-4,-0.004 -2.65e-4,-0.009 0.0011,-0.0129 5.29e-4,-0.001 0.0021,-0.002 0.0021,-0.002 -8.5e-5,-5.2e-4 4.2e-5,-10e-4 0,-0.002 -5.29e-4,-0.006 -2.65e-4,-0.005 0.0011,-0.0109 5.29e-4,-0.001 0.0011,-0.002 0.0016,-0.004 -1.17e-4,2.1e-4 5.29e-4,-0.001 5.29e-4,-0.001 -9e-5,-7.9e-4 -2.01e-4,-0.002 0,-0.003 0,-0.004 -8e-6,-0.009 0,-0.0129 8e-6,-0.003 1.06e-4,-0.006 0,-0.009 8e-6,-0.003 7.94e-4,-0.007 5.29e-4,-0.01 -2.38e-4,-0.002 -0.0011,-0.005 -0.0011,-0.007 -5.3e-4,-0.001 -7.94e-4,-0.001 -0.0011,-0.002 l -0.0021,-5.3e-4 c -1.14e-4,-2.7e-4 -5.3e-4,-0.002 -0.0011,-0.003 -5.29e-4,-0.003 -7.93e-4,-0.005 -0.0011,-0.007 -5.29e-4,-0.004 5.29e-4,-0.007 0,-0.0109 8e-6,-7.9e-4 -2.65e-4,-0.006 0,-0.006 -7.94e-4,-0.003 -0.0011,-0.005 -0.0016,-0.009 -2.56e-4,-0.004 2.65e-4,-0.007 0,-0.0114 -5.8e-5,-0.003 -2.56e-4,-0.006 0,-0.009 v -5.3e-4 c -7.93e-4,-0.003 -0.0011,-0.005 -0.0016,-0.008 -5.29e-4,-0.004 2.65e-4,-0.007 0,-0.0108 v -0.0233 -0.002 c 0,-0.0109 0.0038,-0.0181 0.0088,-0.0212 -2.17e-4,-0.004 -5.29e-4,-0.009 -5.29e-4,-0.0129 9.8e-5,-0.0117 0.0016,-0.0237 0.0021,-0.0351 -2.65e-4,-0.0151 -5.3e-4,-0.0304 -5.3e-4,-0.0455 0.0056,0.0158 0.01146,0.0317 0.01707,0.0475 0.01122,-0.0468 0.01484,-0.0968 0.03876,-0.1385 0.0074,-0.013 0.0297,-0.003 0.04444,-0.005 0.01029,-10e-4 0.0185,-7.9e-4 0.02532,0 -0.0035,-0.0503 0.0065,-0.1059 0.04031,-0.11162 0.01807,-0.003 0.04339,0.008 0.07648,0.0418 -0.0076,-0.004 -0.01603,-0.006 -0.02479,-0.006 -0.07394,0.002 -0.08515,0.0366 -0.0863,0.076 0.0035,8e-4 0.0063,0.002 0.0088,0.003 0.03359,-0.0272 0.07169,-0.0498 0.112655,-0.062 -0.0031,-0.003 -0.0058,-0.007 -0.0088,-0.0103 0.0043,0.003 0.0083,0.006 0.01241,0.009 h 5.29e-4 c 0.01011,-0.003 0.02058,0.01 0.02894,0.0295 0.0056,0.006 0.01146,0.0127 0.01707,0.0181 0.0064,0.006 0.0047,0.0163 0.0067,0.0253 2.65e-4,10e-4 7.94e-4,0.003 0.0011,0.004 0.0066,-0.007 0.01347,-0.0133 0.02119,-0.0186 -0.02376,-0.0563 -0.0131,-0.10248 0.01394,-0.12505 -0.01328,-0.0494 -0.02551,-0.0989 -0.03669,-0.14884 -0.0066,-0.0294 -0.03607,-0.0695 -0.01344,-0.0894 0.05448,-0.0479 0.09124,-0.0698 0.117822,-0.0729 0.05074,-0.006 0.06486,0.0539 0.0956,0.11525 0.04406,0.0912 0.09535,0.17867 0.151413,0.26303 0.03462,0.002 0.05882,0.0188 0.07803,0.0424 0.01492,-0.009 0.02987,-0.0181 0.04444,-0.0279 0.0019,2.5e-4 0.007,0.002 0.0057,5.2e-4 -0.0024,-0.003 -0.0063,-0.003 -0.0093,-0.005 -0.0013,-0.001 -0.0048,-0.002 -0.0041,-0.003 0.0013,-0.003 0.0048,-0.005 0.0072,-0.004 0.0059,0.003 0.01199,0.005 0.0181,0.007 7.94e-4,-2.3e-4 0.0013,-1.9e-4 0.0021,-5.3e-4 -0.02127,-0.12837 0.113975,-0.16108 0.172083,-0.0176 7.94e-4,0.002 0.0013,0.003 0.0021,0.005 0.02175,-0.017 0.0448,-0.0336 0.06925,-0.0455 0.0037,-0.002 0.0079,-0.004 0.01188,-0.005 5.29e-4,-2.3e-4 0.0026,-2e-4 0.0031,-5.3e-4 0.01289,-0.005 0.02566,-0.009 0.03927,-0.0114 -0.02021,-0.0966 0.02829,-0.15723 0.0894,-0.15813 0.04864,-8e-4 0.105209,0.0361 0.14056,0.12196 0.0083,0.0202 0.01154,0.028 0.0181,0.0439 -0.0074,-0.0972 0.04446,-0.15701 0.101285,-0.16123 0.03797,-0.003 0.07781,0.0195 0.10387,0.0724 0.0073,-0.012 0.01487,-0.0239 0.0217,-0.0362 0.01236,0.006 0.02561,0.01 0.03876,0.0134 0.01056,-0.0585 0.04752,-0.0906 0.08992,-0.093 0.03547,-0.002 0.07405,0.0167 0.103351,0.0589 0.0019,-0.005 0.0037,-0.0102 0.0057,-0.015 -0.0057,-0.033 0.01468,-0.0733 0.08475,-0.12609 0.0034,-0.003 0.0073,-0.004 0.01085,-0.004 0.02461,-0.003 0.05106,0.043 0.07545,0.0605 0.0275,0.0197 0.04735,0.0359 0.06873,0.0517 0.01807,-0.017 0.03708,-0.0323 0.05994,-0.0408 0.0011,-5.3e-4 0.0021,-2e-4 0.0031,-5.3e-4 0.01625,-0.002 0.02857,0.0241 0.04186,0.0362 0.0059,0.005 0.01037,0.0116 0.01447,0.0186 0.0061,0.01 0.01095,0.0194 0.01498,0.0284 0.01056,0.003 0.02278,0.009 0.03204,0.0103 0.05595,0.0109 0.100394,0.019 0.14211,0.0274 0.02199,0.003 0.04421,0.006 0.06615,0.009 0.03039,0.008 0.06056,0.0152 0.09095,0.0233 0.01918,0.006 0.03826,0.0112 0.05736,0.0171 0.004,-0.0267 0.0079,-0.0532 0.01241,-0.078 0.0048,-0.0269 0.01167,-0.0538 0.01757,-0.0806 0.006,-0.0124 0.0046,-0.0402 0.0181,-0.0372 0.05362,0.0111 0.101272,0.0421 0.149344,0.0687 0.003,0.002 0.0058,0.004 0.0088,0.005 0.0033,0.002 0.0037,0.0123 0.0041,0.015 l 5.29e-4,-5.3e-4 c 0.0021,-0.009 -0.0082,-0.0204 -0.0021,-0.0274 0.0051,-0.005 0.01521,0.002 0.02223,0.005 0.02043,0.008 0.04003,0.0184 0.05994,0.0274 0.02408,0.0225 0.04169,0.0366 0.05581,0.0506 0.0019,-0.007 0.0037,-0.0138 0.0057,-0.0207 0.03275,-0.0158 0.06184,-0.0477 0.09818,-0.0475 0.005,3e-5 0.0098,5.3e-4 0.01447,0.002 0.0024,-0.007 0.0048,-0.0144 0.0078,-0.0212 0.0058,-0.0134 0.0089,-0.0397 0.02326,-0.0367 0.05564,0.01 0.108751,0.0358 0.155027,0.0682 0.01259,0.009 0.0051,0.0308 0.0078,0.046 0.0089,0.0316 0.01685,0.0633 0.02687,0.0946 0.0042,0.0132 0.0089,0.0265 0.01344,0.0398 0.02294,-0.013 0.04919,-0.0119 0.0708,0.002 0.0241,-10e-4 0.04835,-0.002 0.07235,-0.003 0.02503,-10e-4 0.04988,-5.3e-4 0.07493,-0.002 0.04346,0.001 0.09563,-0.002 0.137977,0.0124 0.01963,0.007 0.0366,0.02 0.05478,0.03 7.94e-4,2.3e-4 -0.0031,-0.001 -0.0026,-5.3e-4 0.03771,0.0433 0.02553,0.0202 0.03772,0.045 0.0042,0.0173 0.0095,0.0346 0.01241,0.0522 7.94e-4,0.005 -0.0016,0.0105 -0.0021,0.0155 v 5.3e-4 c 0.0068,0.0289 0.01119,0.0585 0.0093,0.0884 v 0.0315 c 0.0098,0.003 0.01783,0.0148 0.01498,0.0346 -0.0013,0.01 -0.0026,0.0132 -0.0031,0.0196 1.48e-4,0.002 5.29e-4,0.003 5.29e-4,0.005 v 0.004 h 5.29e-4 c 2.65e-4,0.005 -1e-4,0.0105 0,0.0155 3.5e-5,0.002 0,0.004 0,0.006 v 0.002 c -1e-5,0.003 3e-6,0.006 0,0.009 v 0.0264 0.0165 0.0243 0.0191 0.0155 0.017 0.0212 0.0222 0.0119 0.009 h 1.582333 z m -2.124935,4.8426 c -0.0013,0.004 -0.0027,0.008 -0.0041,0.0124 h 5.29e-4 c 0.0033,2.3e-4 0.0043,-0.009 0.0041,-0.0124 z m -1.38131,0.0331 c 2.38e-4,7.9e-4 1.6e-5,0.002 5.29e-4,0.003 2.65e-4,5.3e-4 7.94e-4,0.001 0.0011,0.002 0.005,0.008 0.0069,0.0151 0.01551,0.0279 0.0062,0.009 0.01259,0.0184 0.01913,0.0274 0.03092,-0.002 0.06005,0.007 0.09302,0.0181 -0.0021,-0.002 -0.0045,-0.003 -0.0067,-0.005 -0.02627,-0.0202 -0.06141,-0.0396 -0.08992,-0.0615 -0.01072,-0.004 -0.02228,-0.008 -0.03255,-0.0119 z m 0.915188,0.0791 c -0.0011,0.007 -0.0021,0.0131 -0.0031,0.0196 0.0236,0.007 0.04427,0.0128 0.06149,0.0181 -0.0034,-0.005 -0.0067,-0.009 -0.0098,-0.0139 -0.01527,-0.007 -0.03054,-0.0162 -0.04599,-0.0233 -7.94e-4,-2.6e-4 -0.0019,1e-4 -0.0026,-5.3e-4 z m -2.447911,0.13746 c 0.0011,0.004 0.0021,0.008 0.0031,0.0119 1.1e-5,-0.003 -7.1e-5,-0.006 0,-0.008 -0.0011,-0.001 -0.0021,-0.003 -0.0031,-0.004 z m -0.168466,0.006 c 2.65e-4,0.005 0.0011,0.0101 0.0016,0.015 0.0013,-10e-4 0.0024,-0.002 0.0036,-0.003 -2.9e-5,-0.004 5.3e-4,-0.008 5.3e-4,-0.0114 -0.0016,-2.5e-4 -0.0038,-1.8e-4 -0.0057,-5.2e-4 z m 2.037085,0.19068 c 0.01183,0.0127 0.0273,0.0291 0.04651,0.0491 -0.0097,-0.0159 -0.01966,-0.0324 -0.02842,-0.047 -0.006,-7.9e-4 -0.01204,-10e-4 -0.0181,-0.002 z m -0.08733,0.0217 c -0.01151,0.008 -0.02365,0.0159 -0.03669,0.0243 -0.01196,0.004 -0.02384,0.0159 -0.03617,0.0129 -0.02172,-0.006 -0.04152,-0.0169 -0.06098,-0.0284 0.0085,0.0285 0.01236,0.0417 0.02532,0.0853 0.01307,0.044 0.02705,0.0878 0.03979,0.13177 0.0037,0.005 0.007,0.0113 0.01085,0.0191 h 0.296106 c -0.03893,-0.0363 -0.07811,-0.0724 -0.115237,-0.11058 -0.04237,-0.0435 -0.08185,-0.0897 -0.122992,-0.13436 z m 0.714684,0.0109 c 5.29e-4,0.003 0.0011,0.006 0.0016,0.009 0.0011,-0.003 0.0021,-0.006 0.0031,-0.009 -0.0016,7e-5 -0.0029,-6e-5 -0.0047,0 z m -1.921846,0.0703 c -5.29e-4,2.4e-4 -0.0011,8e-4 -0.0016,10e-4 5.29e-4,-2.6e-4 0.0011,-7.9e-4 0.0016,-10e-4 z m 2.08411,5.3e-4 -5.29e-4,5.3e-4 c -0.0038,0.01 -0.0076,0.0199 -0.01188,0.0305 -0.01061,0.0261 -0.02302,0.0513 -0.03566,0.0765 0.0086,-0.004 0.02114,-0.007 0.03824,-0.01 0.0016,-0.005 0.0028,-0.0112 0.0031,-0.015 0.0033,-0.0473 0.0052,-0.0676 0.0062,-0.0801 6.9e-5,-5.3e-4 2.54e-4,-0.002 5.29e-4,-0.003 z m -1.669148,0.007 c -0.01778,0.002 -0.03268,0.003 -0.04547,0.004 0.01532,0.0523 0.03383,0.10361 0.05581,0.15348 h 0.104902 c -0.0037,-0.003 -0.0077,-0.007 -0.01188,-0.01 -0.0074,8e-4 -0.01426,0.002 -0.02222,0.003 -0.01315,0.002 -0.01376,-0.0224 -0.02016,-0.0341 -0.01815,-0.0333 -0.03604,-0.067 -0.05323,-0.10077 z m 0.07907,0.0336 c -0.0076,2.3e-4 -0.0082,0.0102 -0.01344,0.0419 0.02655,-0.007 0.05306,-0.0141 0.07958,-0.0217 -0.0036,-0.002 -0.0072,-0.005 -0.01085,-0.007 -0.03275,-0.003 -0.04773,-0.0121 -0.05529,-0.0119 z m -0.286806,0.0207 c -7.94e-4,1.6e-4 -0.0028,2e-4 -0.0036,5.3e-4 0.0088,0.0261 0.01823,0.0573 0.03049,0.0982 5.29e-4,10e-4 5.29e-4,0.003 0.0011,0.004 h 0.0057 c -0.0073,-0.0197 -0.01445,-0.0395 -0.02066,-0.0594 -0.005,-0.0161 -0.0088,-0.0292 -0.01291,-0.0429 z m -0.293005,0.0186 c -0.0223,0.0133 -0.04134,0.0335 -0.06149,0.0517 0.02953,-0.007 0.05933,-0.0122 0.0894,-0.0155 -0.0078,-0.0104 -0.01815,-0.0232 -0.02791,-0.0362 z m 0.949296,0.006 v 5.3e-4 c -0.01945,0.0213 -0.04209,0.0387 -0.07338,0.0341 0.0013,10e-4 0.0024,0.003 0.0036,0.004 0.01029,0.0106 0.02344,0.0184 0.03514,0.0274 0.0054,0.004 0.01066,0.009 0.01551,0.0129 h 0.05943 c -0.0066,-0.0214 -0.01355,-0.0427 -0.02016,-0.0641 -0.0064,-0.005 -0.01355,-0.0101 -0.02016,-0.015 z m -0.880049,0.0243 c -7.94e-4,5.3e-4 -0.0013,10e-4 -0.0021,0.002 1.24e-4,2.5e-4 1.85e-4,7.9e-4 5.29e-4,0.001 0.0013,-5e-5 0.0028,6e-5 0.0041,0 -5.29e-4,-0.002 -0.0016,-0.004 -0.0026,-0.003 z m 2.672704,0.0186 c -0.0042,0.0117 -0.0084,0.0224 -0.01241,0.0341 h 0.02376 c 5.29e-4,-0.003 0.0011,-0.006 0.0016,-0.008 0.0019,-0.009 -0.0066,-0.0177 -0.01291,-0.0264 z m -0.636653,0.0134 c -0.0033,0.007 -0.0071,0.0139 -0.01035,0.0207 v 5.3e-4 h 0.01447 c -0.0019,-0.008 -0.0033,-0.0151 -0.0041,-0.0212 z m -2.206583,0.007 c -0.0069,0.006 -0.01312,0.0106 -0.01913,0.015 h 0.02429 c -7.93e-4,-0.002 -0.0019,-0.005 -0.0026,-0.007 -0.0011,-0.001 -0.0016,-0.004 -0.0021,-0.006 v -5.3e-4 c -5.6e-5,-2.6e-4 -2.38e-4,-5.3e-4 -5.29e-4,-0.001 z" />
    </clipPath>
    <clipPath
       clipPathUnits="userSpaceOnUse"
       id="clipPath20992">
      <path
         id="path20994"
         style="fill:#ff0000;fill-opacity:1;fill-rule:nonzero;stroke:none;stroke-width:0.264583"
         d="m 84.898177,118.60206 c -8.7e-5,2.6e-4 -5.29e-4,0.001 -5.29e-4,0.002 h 5.29e-4 z m -5.29e-4,0.002 -4.332552,5.2e-4 v 11.95793 h 12.142928 v -11.95798 h -4.352695 c 0.01058,0.002 0.02074,0.004 0.03049,0.007 0.01963,0.007 0.03661,0.0179 0.05478,0.0279 7.94e-4,2.3e-4 -0.0031,-0.001 -0.0026,-5.3e-4 0.03771,0.0433 0.02553,0.0212 0.03772,0.046 0.0042,0.0173 0.0095,0.0346 0.01241,0.0522 7.94e-4,0.005 -0.0011,0.0105 -0.0016,0.0155 v 5.2e-4 c 0.0068,0.0289 0.01119,0.057 0.0093,0.0868 v 0.03 c 0.01048,0.002 0.01953,0.0147 0.01654,0.0357 -0.0011,0.008 -0.0019,0.0126 -0.0026,0.0176 9e-5,5.3e-4 -6.9e-5,2.7e-4 0,0.002 2.07e-4,0.002 5.29e-4,0.004 5.29e-4,0.006 v 0.005 c 2.65e-4,0.005 -9.5e-5,0.0105 0,0.0155 v 0.003 c 6e-6,2.6e-4 0,7.9e-4 0,0.001 1.19e-4,5.3e-4 5.3e-4,0.001 5.3e-4,0.002 l -5.3e-4,5.3e-4 c 0.0011,0 0,0.002 0,0.003 -8e-6,0.002 8e-6,0.005 0,0.007 v 0.005 0.0212 0.0165 0.0243 0.0191 0.015 0.0176 0.0212 0.0222 0.0119 0.0196 0.0186 c 2.65e-4,0.006 -0.0013,0.008 -0.0031,0.015 h 5.29e-4 c 2.65e-4,0.005 2.65e-4,0.004 -0.0011,0.0114 0.0021,-0.0169 -0.01437,10e-4 -0.02791,0.0114 -0.0034,0.0115 -0.0074,0.0228 -0.01291,0.0341 -0.0041,0.008 -0.0069,0.0218 -0.01601,0.0238 -0.137864,0.0373 -0.110051,0.0379 -0.157615,-0.0553 -8e-6,-0.0213 -0.0016,-0.0433 5.29e-4,-0.0646 5.29e-4,-0.004 0.0013,-0.008 0.0021,-0.0124 0.0019,-0.009 -0.0066,-0.0178 -0.01291,-0.0269 -0.01953,0.0543 -0.03669,0.10954 -0.05271,0.16485 -0.04982,0.0185 -0.09983,0.0373 -0.14986,0.0553 -0.04088,0.0484 -0.08138,0.0487 -0.136427,0.0553 -0.03582,0.004 -0.07011,0.006 -0.105937,0.004 -0.01886,-0.008 -0.03902,-0.014 -0.05633,-0.0253 -0.01397,-0.009 -0.0318,-0.0352 -0.04237,-0.0501 -0.0092,-0.013 -0.01918,-0.0252 -0.02739,-0.0388 -0.01969,-0.0325 -0.03851,-0.0709 -0.05581,-0.10542 -0.0046,-0.02 -0.0082,-0.0345 -0.0098,-0.046 -0.0034,0.007 -0.007,0.0137 -0.01035,0.0207 -0.01389,0.0307 -0.02852,0.0611 -0.04186,0.092 -5.29e-4,0.006 -7.94e-4,0.0129 -0.0026,0.0191 -0.02498,0.0901 -0.05564,0.0564 -0.180866,-0.004 -0.0047,-0.002 -0.0042,-0.008 -0.0021,-0.0129 -0.02527,-0.0114 -0.0522,-0.0196 -0.07545,-0.0346 -0.0223,-0.0144 -0.03512,-0.0329 -0.04651,-0.0527 -0.01937,0.0125 -0.04136,0.0217 -0.0615,0.0331 -0.0094,-0.001 -0.019,-0.002 -0.02842,-0.003 0.02183,0.0271 0.04331,0.0579 0.0031,0.0501 -0.0717,-0.0139 -0.03728,-5.3e-4 -0.112138,-0.0708 -0.04395,-0.0412 -0.08869,-0.0814 -0.130739,-0.12454 -0.0422,-0.0433 -0.08151,-0.0899 -0.122476,-0.13436 -0.01167,0.008 -0.02394,0.0163 -0.03721,0.0248 -0.01196,0.004 -0.02384,0.0154 -0.03617,0.0124 -0.02151,-0.006 -0.0412,-0.0165 -0.06046,-0.0279 0.0084,0.0281 0.01193,0.04 0.02479,0.0832 0.01307,0.044 0.02705,0.0888 0.03979,0.13281 0.0098,0.0128 0.02008,0.0386 0.03462,0.0739 0.0011,0.002 0.0021,0.003 0.0031,0.005 0.01193,0.0173 0.01654,0.0335 0.01551,0.0465 0.04987,0.18421 -0.150908,0.25094 -0.226862,0.0496 -0.01333,-0.0353 -0.02373,-0.0534 -0.02997,-0.0672 0.0181,-0.0122 0.03431,-0.0237 0.04909,-0.0341 -0.01646,0.003 -0.03425,0.006 -0.05374,0.009 0.0042,-0.008 0.01603,-0.0145 0.03876,-0.0279 -0.05632,-0.006 -0.06314,-0.0193 -0.04341,0.03 -0.0013,2.5e-4 -0.0027,5e-5 -0.0041,5.3e-4 -0.0058,10e-4 -0.0019,-0.0116 -0.0036,-0.0176 -0.01085,-0.037 -0.02236,-0.0738 -0.03359,-0.11058 -0.0065,-0.005 -0.01352,-0.01 -0.02016,-0.015 -0.0191,0.0211 -0.04093,0.0395 -0.07131,0.0362 2.65e-4,2.6e-4 7.94e-4,7.9e-4 0.0011,0.001 0.01029,0.0106 0.02344,0.0184 0.03514,0.0274 0.180821,0.13982 0.01926,0.32837 -0.150379,0.1752 -0.02223,-0.0201 -0.04587,-0.04 -0.06666,-0.0615 -0.0055,-0.006 -0.06438,-0.0814 -0.07028,-0.0894 -0.0052,-0.007 -0.01413,-0.0146 -0.02326,-0.0217 -0.0074,7.9e-4 -0.01426,0.002 -0.02223,0.003 -0.01315,0.002 -0.01376,-0.0224 -0.02016,-0.0341 -0.01815,-0.0333 -0.03604,-0.067 -0.05323,-0.10078 -0.0021,-0.004 -0.0045,-0.008 -0.0067,-0.0124 -0.01802,0.002 -0.03302,0.003 -0.04599,0.004 0.01818,0.0616 0.04066,0.12218 0.06821,0.18035 0.0062,0.013 0.01434,0.0249 0.02273,0.0367 -0.04389,0.012 -0.08198,0.0397 -0.122991,0.0594 -0.0191,0.009 -0.02855,0.0145 -0.031,0.0165 -0.01582,-0.0261 -0.02842,-0.0496 -0.02842,-0.0496 -0.02265,-0.0487 -0.04239,-0.0991 -0.05839,-0.15037 -0.0056,-0.0181 -0.0084,-0.0278 -0.01291,-0.0429 -0.0011,1.8e-4 -0.0031,1.8e-4 -0.0041,5.3e-4 0.0089,0.0264 0.01857,0.0573 0.031,0.0987 0.0086,0.0288 0.01791,0.0571 0.02223,0.0868 0.0057,0.0397 0.0043,0.10918 -0.03772,0.13489 -0.0288,0.0178 -0.06691,0.0105 -0.100254,0.0155 -0.0141,-0.0106 -0.03266,-0.0159 -0.04186,-0.031 -0.07696,-0.007 -0.0082,-0.0563 -0.02066,-0.0811 -0.0075,-0.015 -0.01706,-0.0289 -0.02635,-0.0429 -0.0013,-0.002 -0.0028,-0.004 -0.0041,-0.006 0.0071,0.11581 -0.12523,0.14326 -0.173633,0.004 -0.0013,-0.004 -0.0027,-0.008 -0.0041,-0.0124 -0.0041,-0.009 -0.008,-0.0189 -0.01188,-0.0279 -0.0032,-0.007 -0.01503,-0.0186 -0.01188,-0.0238 v -5.3e-4 c -7.93e-4,-0.001 -0.0016,-0.002 -0.0026,-0.003 -0.0019,-0.005 -0.0038,-0.0107 -0.0057,-0.016 -0.0011,-0.001 -0.0016,-0.004 -0.0021,-0.006 v -5.3e-4 c -1.82e-4,-5.3e-4 -1.85e-4,-0.001 -5.29e-4,-0.002 -0.02731,0.0227 -0.04735,0.0337 -0.06356,0.0367 -0.03788,0.0185 -0.07933,0.0283 -0.120409,0.0388 h -5.29e-4 c -0.0122,0.007 -0.02429,0.0131 -0.03721,0.0181 -0.0051,0.002 -0.006,-0.005 -0.0067,-0.0124 -0.0058,-0.0145 -0.01074,-0.0296 -0.01498,-0.0444 -0.0016,-0.004 -0.0029,-0.008 -0.0047,-0.0119 -0.0011,0.008 -0.0019,0.0156 -0.0031,0.0233 -0.0024,0.0163 0.0059,0.0416 -0.0088,0.0486 -5.29e-4,2.3e-4 -0.0011,5.3e-4 -0.0016,5.3e-4 0.0036,0.0126 0.0059,0.0255 0.0031,0.0274 -0.04437,0.0307 -0.09474,0.0751 -0.147794,0.0651 -0.02177,-0.004 -0.02784,-0.0322 -0.02739,-0.0651 v -5.3e-4 c -0.0021,-0.006 -0.0038,-0.0108 -0.0057,-0.016 -0.01487,7.9e-4 -0.03032,1.3e-4 -0.04547,-5.3e-4 0.0013,0.006 0.0042,0.0133 5.29e-4,0.015 -5.29e-4,0.0608 -0.0013,0.0494 -0.100253,0.0222 -0.07754,0.0215 -0.0734,0.0295 -0.07131,-0.0181 h -5.3e-4 c -2.9e-5,0 -7e-6,-0.007 0,-0.0129 -0.0059,0.0296 -0.03617,0.0234 -0.02997,-0.006 0.0011,-0.005 0.0024,-0.007 0.0016,-0.0119 v -0.003 c -0.005,-0.003 -0.0088,-0.01 -0.0088,-0.0207 8e-6,-0.002 5.29e-4,-0.005 5.29e-4,-0.007 -4e-5,-0.007 -5.29e-4,-0.0137 0,-0.0207 5e-5,-0.001 -1.3e-4,-0.001 0,-0.002 -0.0011,-0.004 -0.0019,-0.008 -0.0016,-0.0114 -2e-6,-0.003 -7e-6,-0.006 0,-0.009 6e-6,-0.005 8e-6,-0.009 0,-0.0129 5.3e-5,-0.004 5.3e-4,-0.009 0,-0.0129 -2.54e-4,-0.003 -0.0011,-0.005 -5.29e-4,-0.008 2.65e-4,-10e-4 0.0011,-0.003 0.0016,-0.005 -5.29e-4,-0.005 -1.77e-4,-0.0106 0.0016,-0.015 5.29e-4,-0.002 7.94e-4,-0.004 0.0016,-0.006 l 5.29e-4,-5.3e-4 c -7.94e-4,-0.004 -0.0013,-0.007 0,-0.0119 7.94e-4,-0.002 0.0011,-0.002 0.0021,-0.003 v -5.2e-4 c -2.54e-4,-0.004 -2.65e-4,-0.009 0.0011,-0.0129 5.29e-4,-10e-4 5.29e-4,-0.002 5.29e-4,-0.002 -8.7e-5,-5.3e-4 4e-5,-5.3e-4 0,-0.002 -5.29e-4,-0.006 7.94e-4,-0.005 0.0021,-0.0114 5.29e-4,-10e-4 0.0016,-0.002 0.0021,-0.004 l 5.3e-4,-5.3e-4 c -9.3e-5,-8e-4 -2.04e-4,-0.002 0,-0.003 0,-0.004 -8e-6,-0.009 0,-0.0129 5e-6,-0.003 1.05e-4,-0.006 0,-0.009 5e-6,-0.003 7.93e-4,-0.007 5.29e-4,-0.0104 -2.38e-4,-0.002 -0.0016,-0.005 -0.0016,-0.007 -5.29e-4,-10e-4 -0.0013,-10e-4 -0.0016,-0.002 l -0.0011,-5.3e-4 c -1.11e-4,-2.5e-4 -5.29e-4,-0.002 -0.0011,-0.003 -5.29e-4,-0.003 -7.94e-4,-0.005 -0.0011,-0.007 -5.29e-4,-0.004 5.29e-4,-0.007 0,-0.0108 8e-6,-8e-4 -2.65e-4,-0.006 0,-0.006 -7.94e-4,-0.003 -0.0011,-0.005 -0.0016,-0.009 -2.62e-4,-0.004 2.65e-4,-0.007 0,-0.0114 -5.8e-5,-0.003 -2.62e-4,-0.006 0,-0.009 v -5.3e-4 c -7.93e-4,-0.003 -0.0011,-0.005 -0.0016,-0.008 -5.29e-4,-0.004 2.64e-4,-0.007 0,-0.0109 v -0.0233 -0.002 c 0,-0.0109 0.0038,-0.0181 0.0088,-0.0212 -2.59e-4,-0.005 -5.29e-4,-0.009 -5.29e-4,-0.014 9.8e-5,-0.0117 0.0016,-0.0237 0.0021,-0.0351 -2.64e-4,-0.0151 -5.29e-4,-0.0304 -5.29e-4,-0.0455 0.0056,0.0158 0.01146,0.0317 0.01707,0.0475 0.01122,-0.0468 0.01484,-0.0968 0.03876,-0.13849 0.0074,-0.013 0.0297,-0.003 0.04444,-0.005 0.01029,-0.001 0.0185,-7.9e-4 0.02532,0 -0.0024,-0.0327 0.0019,-0.0674 0.01394,-0.0894 z m 0.661458,-5.3e-4 -0.163298,5.3e-4 c 0.0074,0.0115 0.01466,0.0227 0.02222,0.0341 0.03462,0.002 0.05882,0.0183 0.07803,0.0418 0.01492,-0.009 0.02987,-0.0182 0.04444,-0.0279 0.0019,2.6e-4 0.007,0.002 0.0057,10e-4 -0.0024,-0.003 -0.0063,-0.003 -0.0093,-0.005 -0.0013,-0.001 -0.0048,-0.002 -0.0041,-0.003 0.0013,-0.003 0.0048,-0.005 0.0072,-0.004 0.0056,0.002 0.01125,0.005 0.01707,0.007 h 5.29e-4 c 0.0011,-5.3e-4 0.0013,-0.001 0.0026,-0.002 -0.0026,-0.0156 -0.0026,-0.0297 -0.0011,-0.0424 z m 0.217557,5.3e-4 -0.05633,5.2e-4 c 0.0042,0.008 0.0083,0.0158 0.01188,0.0248 7.94e-4,0.002 0.0013,0.003 0.0021,0.005 0.0136,-0.0106 0.02772,-0.0213 0.04237,-0.0305 z m 1.144632,0.28318 c 0.0096,0.0104 0.02842,0.0297 0.04341,0.0455 -0.0089,-0.0147 -0.01828,-0.0299 -0.02635,-0.0434 -0.0056,-5.3e-4 -0.01138,-0.001 -0.01707,-0.002 z m 0.626319,0.0315 c 5.29e-4,0.003 0.0011,0.007 0.0016,0.01 0.0013,-0.003 0.0024,-0.007 0.0036,-0.01 -0.0019,9e-5 -0.0033,-5e-5 -0.0052,0 z m -1.921846,0.0703 c -5.29e-4,2.4e-4 -0.0011,7.9e-4 -0.0016,10e-4 5.29e-4,-2.6e-4 0.0011,-7.9e-4 0.0016,-10e-4 z m 2.08411,0.002 -5.29e-4,5.3e-4 c -0.0038,0.01 -0.0076,0.0199 -0.01188,0.0305 -0.01061,0.0261 -0.02302,0.0513 -0.03566,0.0765 0.0086,-0.004 0.02114,-0.007 0.03824,-0.01 0.0016,-0.005 0.0028,-0.0102 0.0031,-0.014 0.0033,-0.0473 0.0052,-0.0671 0.0062,-0.0796 7.9e-5,-5.2e-4 1.8e-4,-0.002 5.29e-4,-0.004 z m -1.590083,0.0398 c -0.0076,2.1e-4 -0.0082,0.0104 -0.01344,0.0419 0.02655,-0.007 0.05306,-0.015 0.07958,-0.0227 -0.0038,-0.003 -0.0076,-0.005 -0.01138,-0.008 -0.03214,-0.004 -0.04728,-0.0116 -0.05478,-0.0114 z m -0.57981,0.0398 c -0.02231,0.0133 -0.04134,0.0334 -0.0615,0.0517 0.02953,-0.007 0.05933,-0.0122 0.0894,-0.0155 -0.0078,-0.0104 -0.01815,-0.0232 -0.02791,-0.0362 z m 0.06925,0.03 c -7.94e-4,5.3e-4 -0.0013,0.001 -0.0021,0.002 1.24e-4,2.6e-4 1.85e-4,7.9e-4 5.29e-4,0.001 0.0013,-6e-5 0.0028,5e-5 0.0041,0 -5.3e-4,-0.002 -0.0016,-0.004 -0.0026,-0.003 z m 0.946195,0.11886 c -5.3e-4,0.002 -7.94e-4,0.004 -0.0011,0.006 -1.59e-4,5.3e-4 -5.29e-4,7.9e-4 -5.29e-4,0.002 -7.94e-4,-0.002 -0.0019,-0.005 -0.0026,-0.007 0.0013,-2.6e-4 0.0027,-2.3e-4 0.0041,-5.2e-4 z m -0.468189,0.002 c 0.0085,-0.002 0.01921,0.0291 0.01447,0.0217 0.0199,-0.005 0.03708,-0.008 0.04702,-0.007 0.01506,0.001 0.01484,0.012 -0.01344,0.0362 -0.04048,0.0344 -0.07113,0.0863 -0.121439,0.10336 -0.02336,0.008 -0.05658,-0.0393 -0.08062,-0.0791 0.01217,-0.002 0.105773,-0.0369 0.168466,-0.0527 v -5.3e-4 c -0.0046,-0.007 -0.0095,-0.0141 -0.01447,-0.0212 z m 2.1115,0.0186 c -0.0016,6e-5 -0.0029,5.3e-4 -0.0047,5.3e-4 2.4e-5,0.004 7.94e-4,0.006 0.0036,0.007 0.0047,0.002 0.0027,-0.002 0.0011,-0.007 z m -0.278535,0.0331 c -0.0094,0.0119 -0.01146,0.0257 0.0067,0.0455 -0.0047,-0.0237 -0.0072,-0.0294 -0.0067,-0.0455 z m -0.339,0.005 c -0.0019,0.005 -0.0037,0.01 -0.0057,0.0145 0.0019,-0.003 0.0069,-0.0109 0.0057,-0.0145 z m -1.866035,0.002 c -0.0013,0.005 -0.0024,0.01 -0.0041,0.0155 0.0013,-0.003 0.0052,-0.0119 0.0047,-0.0155 z" />
    </clipPath>
  </defs>
  <g
     inkscape:label="Calque 1"
     inkscape:groupmode="layer"
     id="layer1">
    <path
       style="fill:#d08f55;stroke:#000000;stroke-width:0.148727;stroke-linecap:butt;stroke-linejoin:miter;stroke-dasharray:none;stroke-opacity:1;fill-opacity:1"
       d="m 84.656307,114.64505 -0.03406,-2.98127 4.027183,0.003 -0.0068,2.9754 z"
       id="path5438"
       sodipodi:nodetypes="ccccc" />
    <path
       style="fill:none;stroke:#000000;stroke-width:0.264583px;stroke-linecap:butt;stroke-linejoin:miter;stroke-opacity:1"
       d="m 88.644049,119.15276 -0.0012,-1.49593 1.267386,-1.24991 0.04618,-1.25591 -1.306036,-1.40793 -3.968295,-0.0131 -1.319564,1.41192 -0.0079,1.28812 1.276947,1.3478 -0.01352,1.34225"
       id="path3930"
       sodipodi:nodetypes="cccccccccc"
       clip-path="url(#clipPath20982)" />
    <ellipse
       style="fill:#ffffff;fill-opacity:1;stroke:#000000;stroke-width:0.265;stroke-dasharray:none;stroke-opacity:1"
       id="path18559"
       cx="86.636543"
       cy="124.58313"
       rx="5.938961"
       ry="5.846611"
       clip-path="url(#clipPath20992)" />
    <path
       style="fill:none;stroke:#000000;stroke-width:0.15;stroke-linecap:butt;stroke-linejoin:miter;stroke-dasharray:none;stroke-opacity:1"
       d="m 82.553502,120.3792 8.133429,0.0115"
       id="path17023"
       sodipodi:nodetypes="cc" />
    <circle
       id="path18876"
       style="fill:#ffffff;stroke:#000000;stroke-width:0.264583"
       cx="86.717346"
       cy="118.67071"
       r="0.0030800998"
       clip-path="url(#clipPath20706)" />
  </g>
  <metadata
     id="metadata21376">
    <rdf:RDF>
      <cc:Work
         rdf:about="">
        <dc:title>Potion vide</dc:title>
      </cc:Work>
    </rdf:RDF>
  </metadata>
</svg>
